<svg width="24" height="24" viewBox="0 0 24 24" fill="none" xmlns="http://www.w3.org/2000/svg">
<g clip-path="url(#clip0_3350_14344)">
<path d="M23.2527 22.0421H22.9192V19.141H23.171C23.4777 19.141 23.7274 18.8197 23.7274 18.4247V18.2217C23.7274 17.8201 23.4777 17.4933 23.171 17.4933H22.9192V9.62538H23.2527C23.6577 9.62538 23.9999 9.17703 23.9999 8.64621C23.9999 8.10637 23.6649 7.66718 23.2527 7.66718H22.8454C21.0438 6.23251 19.5523 4.97901 18.3523 3.97027C12.0557 -1.32283 11.9365 -1.32401 5.6386 3.97027C4.4385 4.97895 2.94703 6.23251 1.14544 7.66718H0.747145C0.328213 7.66718 0 8.09721 0 8.64621C0 9.18619 0.335093 9.62538 0.747145 9.62538H1.07194V17.4932H0.819731C0.513065 17.4932 0.263413 17.82 0.263413 18.2216V18.4246C0.263413 18.8196 0.513065 19.1409 0.819731 19.1409H1.07194V22.0421H0.747145C0.335093 22.0421 0 22.4813 0 23.021V23.7015C0 23.8664 0.102613 24 0.229333 24H23.7706C23.8007 24 23.8306 23.9923 23.8584 23.9773C23.8862 23.9623 23.9115 23.9403 23.9328 23.9126C23.9541 23.8849 23.971 23.852 23.9825 23.8158C23.9941 23.7795 24 23.7407 24 23.7015V23.021C23.9999 22.4905 23.6577 22.0421 23.2527 22.0421ZM23.1711 18.0903C23.2259 18.0903 23.2687 18.148 23.2687 18.2217V18.4247C23.2687 18.4895 23.2239 18.544 23.1711 18.544H22.9193V18.0903H23.1711V18.0903ZM22.4605 17.7918V22.0421H22.1379V9.62538H22.4605V17.7918ZM6.9618 22.0421V19.141H17.0293V22.0421H6.9618ZM5.71273 9.62538V17.4932H2.32069V9.62538H5.71273ZM2.32069 18.0903H5.71273V18.544H2.32069V18.0903ZM2.32069 19.4148L3.58042 20.5592L2.32069 21.667V19.4148ZM2.82069 19.1409H5.19306L3.98746 20.201L2.82069 19.1409ZM5.71273 19.4043V21.7684L4.3905 20.5671L5.71273 19.4043ZM3.9834 20.9253L5.21289 22.0421H2.71338L3.9834 20.9253ZM6.17145 18.8379V9.62538H6.50313V22.0421H6.17145V18.8379ZM17.0293 9.62538V17.4932H6.9618V9.62538H17.0293ZM6.9618 18.0903H17.0293V18.544H6.9618V18.0903ZM17.4881 18.8425V9.62538H17.8194V22.0421H17.4881V18.8425ZM21.6793 9.62538V17.4932H18.2781V9.62538H21.6793ZM18.2781 18.0903H21.6793V18.544H18.2781V18.0903ZM18.2781 19.414L19.5441 20.5616L18.2781 21.6749V19.414ZM18.7794 19.1409H21.1595L19.9514 20.2032L18.7794 19.1409ZM21.6793 19.4044V21.7691L20.3551 20.569L21.6793 19.4044ZM19.9477 20.9271L21.1779 22.0421H18.6799L19.9477 20.9271ZM5.88735 4.4718C11.9953 -0.662004 11.995 -0.662837 18.1035 4.4718C19.1617 5.36121 20.4455 6.44041 21.9699 7.66718H2.02096C3.54538 6.44041 4.82916 5.36121 5.88735 4.4718ZM0.458666 8.64621C0.458666 8.42832 0.582559 8.26422 0.747145 8.26422H23.2527C23.4117 8.26422 23.5412 8.43568 23.5412 8.64621C23.5412 8.84981 23.4063 9.02841 23.2527 9.02841H0.747198C0.588212 9.02841 0.458666 8.85696 0.458666 8.64621ZM0.819731 18.544C0.766878 18.544 0.722079 18.4894 0.722079 18.4246V18.2216C0.722079 18.1479 0.764958 18.0902 0.819731 18.0902H1.07194V18.5439H0.819731V18.544ZM1.53066 18.8425V9.62538H1.86202V22.0421H1.53066V18.8425ZM23.5413 23.4031H0.458666V23.0211C0.458666 22.8106 0.588212 22.6391 0.747145 22.6391H23.2528C23.4065 22.6391 23.5413 22.8177 23.5413 23.0211V23.4031Z" fill="#141515"/>
</g>
<defs>
<clipPath id="clip0_3350_14344">
<rect width="24" height="24" fill="white"/>
</clipPath>
</defs>
</svg>
