<svg width="24" height="24" viewBox="0 0 24 24" fill="none" xmlns="http://www.w3.org/2000/svg">
<g clip-path="url(#clip0_3367_15291)">
<g clip-path="url(#clip1_3367_15291)">
<mask id="mask0_3367_15291" style="mask-type:luminance" maskUnits="userSpaceOnUse" x="0" y="0" width="32" height="32">
<path d="M31.9999 32H0V8.01086e-05H31.9999V32Z" fill="white"/>
</mask>
<g mask="url(#mask0_3367_15291)">
<path d="M16.5998 6.25635H13.7123C13.5186 6.25635 13.3623 6.1001 13.3623 5.90635V5.38135C13.3623 4.45635 13.5998 3.54385 14.0498 2.74386C14.1436 2.57511 14.3623 2.51261 14.5311 2.61261C14.6998 2.70636 14.7623 2.92511 14.6623 3.09386C14.2686 3.7876 14.0623 4.58135 14.0623 5.3876V5.55635H16.5998C19.181 5.55635 21.281 3.45635 21.281 0.875112V0.706361H18.7435C17.5873 0.706361 16.481 1.13136 15.6185 1.90011C15.4748 2.03136 15.2498 2.01886 15.1248 1.87511C14.9936 1.73136 15.0061 1.50636 15.1498 1.38136C16.1373 0.493863 17.4123 0.00636387 18.7435 0.00636387H21.4748C21.756 0.00636387 21.981 0.231364 21.981 0.512613V0.875112C21.981 3.84385 19.5685 6.25635 16.5998 6.25635Z" fill="black"/>
<path d="M11.2494 21.6313C11.0557 21.6313 10.8994 21.4751 10.8994 21.2813V10.7251C10.8994 8.67513 11.8994 6.75638 13.5744 5.57514L17.6744 2.70015C17.8306 2.58765 18.0556 2.62514 18.1619 2.78765C18.2744 2.9439 18.2369 3.16889 18.0744 3.27514L13.9744 6.15014C12.4869 7.19388 11.5994 8.90638 11.5994 10.7189V21.2813C11.5994 21.4751 11.4432 21.6313 11.2494 21.6313Z" fill="black"/>
<path d="M10.0123 10.7563H7.22479C4.35605 10.7563 2.01855 8.41885 2.01855 5.55011V5.20011C2.01855 4.91886 2.24355 4.69386 2.5248 4.69386H2.9998C3.19355 4.69386 3.3498 4.85011 3.3498 5.04386C3.3498 5.23761 3.19355 5.39386 2.9998 5.39386H2.7248V5.54386C2.7248 8.0251 4.74355 10.0501 7.23104 10.0501H9.66229V9.9001C9.66229 7.41886 7.64354 5.39386 5.15605 5.39386H4.6373C4.44355 5.39386 4.2873 5.23761 4.2873 5.04386C4.2873 4.85011 4.44355 4.69386 4.6373 4.69386H5.15605C8.02479 4.69386 10.3623 7.03136 10.3623 9.9001V10.4063C10.3623 10.6001 10.206 10.7563 10.0123 10.7563Z" fill="black"/>
<path d="M11.2503 14.3125C11.0565 14.3125 10.9003 14.1562 10.9003 13.9625V12.8125C10.9003 11.9625 10.4815 11.1625 9.78776 10.6688L5.79402 7.87502C5.63777 7.76252 5.59402 7.54377 5.70652 7.38752C5.81902 7.23127 6.03777 7.18752 6.19402 7.30002L10.1815 10.0938C11.069 10.7125 11.594 11.7313 11.594 12.8125V13.9625C11.6003 14.1562 11.444 14.3125 11.2503 14.3125Z" fill="black"/>
<path d="M14.5059 13.0251H12.5121C12.3184 13.0251 12.1621 12.8689 12.1621 12.6751V12.3126C12.1621 10.2064 13.8746 8.49391 15.9808 8.49391H17.8183C18.0996 8.49391 18.3246 8.71891 18.3246 9.00016V9.20641C18.3246 11.3127 16.6121 13.0251 14.5059 13.0251ZM12.8684 12.3251H14.5059C16.2246 12.3251 17.6246 10.9252 17.6246 9.20641V9.20016H15.9871C14.2684 9.20016 12.8684 10.6002 12.8684 12.3189V12.3251Z" fill="black"/>
<path d="M11.2494 16.325C11.0557 16.325 10.8994 16.1687 10.8994 15.975V14.9187C10.8994 13.9625 11.3682 13.0625 12.1557 12.5062L15.1869 10.3812C15.3432 10.2687 15.5682 10.3062 15.6744 10.4687C15.7869 10.625 15.7494 10.85 15.5869 10.9562L12.5557 13.0812C11.9557 13.5 11.5994 14.1875 11.5994 14.9125V15.9687C11.5994 16.1625 11.4432 16.325 11.2494 16.325Z" fill="black"/>
<path d="M10.0502 16.5688H8.51269C6.83769 16.5688 5.48145 15.2064 5.48145 13.5376V13.4126C5.48145 13.1314 5.70645 12.9064 5.98769 12.9064H7.36894C9.04394 12.9064 10.4002 14.2689 10.4002 15.9376V16.2188C10.4002 16.4126 10.2439 16.5688 10.0502 16.5688ZM6.18144 13.6126C6.21894 14.8626 7.25019 15.8688 8.51269 15.8688H9.70018C9.66268 14.6189 8.63144 13.6126 7.36894 13.6126H6.18144Z" fill="black"/>
<path d="M11.2497 19.6687C11.0559 19.6687 10.8997 19.5125 10.8997 19.3187V18.4687C10.8997 17.7062 10.5247 16.9812 9.89968 16.5437L7.63093 14.9562C7.47468 14.8437 7.43093 14.625 7.54343 14.4687C7.65593 14.3125 7.87468 14.2687 8.03093 14.3812L10.2997 15.9687C11.1122 16.5375 11.5997 17.475 11.5997 18.4687V19.3187C11.5997 19.5125 11.4434 19.6687 11.2497 19.6687Z" fill="black"/>
<path d="M15.1931 24H13.2869C13.0931 24 12.9369 23.8438 12.9369 23.65C12.9369 23.4563 13.0931 23.3 13.2869 23.3H14.8306C14.6869 22.8813 14.2931 22.5875 13.8244 22.5875C13.7806 22.5875 13.7306 22.5875 13.6869 22.5938C13.3244 22.6438 12.9494 22.5125 12.6931 22.2438C12.3119 21.85 11.7931 21.6313 11.2431 21.6313C10.8494 21.6313 10.4619 21.7438 10.1306 21.9625C9.89312 22.1188 9.61187 22.1813 9.33062 22.1438C9.26812 22.1375 9.19937 22.1313 9.13687 22.1313C8.41812 22.1313 7.81812 22.625 7.66187 23.2938H11.6431C11.8369 23.2938 11.9931 23.45 11.9931 23.6438C11.9931 23.8375 11.8369 23.9937 11.6431 23.9937H7.31812H7.31187C7.09313 23.9875 6.91188 23.8063 6.91813 23.5875C6.93063 23.0063 7.16813 22.4625 7.58687 22.0563C8.00562 21.65 8.55562 21.425 9.13687 21.425C9.23062 21.425 9.33062 21.4313 9.42437 21.4438C9.53687 21.4563 9.65562 21.4313 9.74937 21.3688C10.1931 21.075 10.7119 20.9188 11.2431 20.9188C11.9869 20.9188 12.6806 21.2125 13.1931 21.7438C13.2994 21.85 13.4494 21.9063 13.5931 21.8875C13.6681 21.875 13.7494 21.875 13.8244 21.875C14.7806 21.875 15.5556 22.625 15.5869 23.5813C15.5931 23.6875 15.5494 23.7938 15.4744 23.875C15.4056 23.9563 15.2994 24 15.1931 24Z" fill="black"/>
</g>
</g>
</g>
<defs>
<clipPath id="clip0_3367_15291">
<rect width="24" height="24" fill="white"/>
</clipPath>
<clipPath id="clip1_3367_15291">
<rect width="24" height="24" fill="white"/>
</clipPath>
</defs>
</svg>
