<svg width="24" height="24" viewBox="0 0 24 24" fill="none" xmlns="http://www.w3.org/2000/svg">
<g clip-path="url(#clip0_3335_41859)">
<mask id="mask0_3335_41859" style="mask-type:luminance" maskUnits="userSpaceOnUse" x="0" y="0" width="24" height="24">
<path d="M0 0H24V24H0V0Z" fill="white"/>
</mask>
<g mask="url(#mask0_3335_41859)">
<path d="M23.9965 12.0017C23.9869 11.9334 23.9574 11.8693 23.9117 11.8176C23.866 11.7659 23.8061 11.7288 23.7394 11.7109C23.7166 11.7049 21.6245 11.1395 18.8957 10.0574C21.8231 8.75305 23.7966 7.57771 23.8292 7.55816C23.8884 7.52263 23.9358 7.47048 23.9655 7.4082C23.9952 7.34593 24.006 7.27628 23.9964 7.20793C23.9868 7.13959 23.9574 7.07557 23.9117 7.02386C23.866 6.97214 23.8061 6.93502 23.7394 6.9171C23.6756 6.90004 17.3022 5.16833 12.188 1.9296C12.1317 1.89396 12.0665 1.87504 11.9999 1.87504C11.9333 1.87504 11.8681 1.89396 11.8118 1.9296C9.74018 3.24154 7.24071 4.45747 4.38274 5.54371C4.29558 5.57684 4.22515 5.64324 4.18694 5.7283C4.14874 5.81336 4.14589 5.91011 4.17902 5.99727C4.21215 6.08443 4.27855 6.15486 4.36361 6.19307C4.44867 6.23127 4.54542 6.23412 4.63258 6.20099C7.44879 5.1306 9.92622 3.9336 11.9999 2.64177C16.0834 5.18432 20.8817 6.78932 22.7533 7.3611C21.1047 8.27179 16.8062 10.5003 11.9999 11.8214C7.1951 10.5007 2.89793 8.27324 1.24816 7.36204C1.70219 7.22394 2.32938 7.02477 3.08238 6.76391C3.126 6.7488 3.16623 6.72524 3.20075 6.69459C3.23527 6.66393 3.26341 6.62677 3.28358 6.58524C3.30374 6.54371 3.31552 6.49861 3.31825 6.45252C3.32099 6.40643 3.31462 6.36026 3.2995 6.31663C3.28439 6.27301 3.26083 6.23278 3.23018 6.19826C3.19952 6.16374 3.16237 6.1356 3.12083 6.11543C3.0793 6.09527 3.0342 6.08349 2.98811 6.08075C2.94202 6.07802 2.89585 6.08439 2.85222 6.09951C1.30535 6.63533 0.270676 6.91438 0.260363 6.9171C0.19372 6.93502 0.13382 6.97214 0.088127 7.02386C0.042434 7.07557 0.0129677 7.13959 0.00339785 7.20793C-0.00617196 7.27628 0.00457862 7.34593 0.0343098 7.4082C0.0640409 7.47048 0.111438 7.52263 0.170597 7.55816C0.203129 7.57771 2.17671 8.75305 5.10415 10.0574C2.37743 11.1385 0.283145 11.7049 0.260363 11.7109C0.19372 11.7288 0.13382 11.766 0.088127 11.8177C0.042434 11.8694 0.0129677 11.9334 0.00339785 12.0017C-0.00617196 12.0701 0.00457862 12.1397 0.0343098 12.202C0.0640409 12.2643 0.111438 12.3164 0.170597 12.352C0.203129 12.3715 2.17671 13.5469 5.10415 14.8512C2.37747 15.9323 0.283145 16.4987 0.260363 16.5047C0.19372 16.5226 0.13382 16.5598 0.088127 16.6115C0.042434 16.6632 0.0129677 16.7272 0.00339785 16.7956C-0.00617196 16.8639 0.00457862 16.9336 0.0343098 16.9958C0.0640409 17.0581 0.111438 17.1103 0.170597 17.1458C0.213769 17.1717 1.24755 17.7899 2.94836 18.634C2.98971 18.6545 3.0347 18.6667 3.08076 18.6698C3.12682 18.673 3.17304 18.667 3.21679 18.6523C3.26054 18.6375 3.30097 18.6143 3.33575 18.584C3.37053 18.5536 3.39899 18.5167 3.4195 18.4754C3.44004 18.434 3.45223 18.389 3.45537 18.3429C3.45852 18.2969 3.45256 18.2507 3.43783 18.2069C3.4231 18.1631 3.3999 18.1227 3.36955 18.0879C3.33919 18.0531 3.30228 18.0247 3.26093 18.0042C2.40822 17.5809 1.71869 17.2112 1.2461 16.9495C2.21894 16.6533 3.98097 16.0792 6.00775 15.2443C7.76116 15.9889 9.78686 16.7419 11.9076 17.3189C11.9681 17.3353 12.0318 17.3353 12.0922 17.3189C12.5017 17.2073 12.9094 17.0892 13.3152 16.9646C13.4043 16.9373 13.4789 16.8756 13.5226 16.7932C13.5663 16.7109 13.5755 16.6145 13.5481 16.5254C13.5208 16.4362 13.4591 16.3616 13.3768 16.3179C13.2944 16.2742 13.198 16.2651 13.1089 16.2924C12.7408 16.4055 12.3711 16.5131 11.9999 16.6152C7.1944 15.2943 2.89643 13.0663 1.24722 12.1553C2.22025 11.859 3.98177 11.2851 6.00775 10.4505C7.76116 11.1951 9.78686 11.9481 11.9076 12.5251C11.9681 12.5415 12.0318 12.5415 12.0922 12.5251C14.2129 11.9481 16.2386 11.1951 17.9921 10.4505C20.0183 11.2851 21.78 11.8592 22.753 12.1555C21.4132 12.8962 18.3243 14.5075 14.6408 15.7902C14.5546 15.8223 14.4844 15.8869 14.4452 15.9701C14.4061 16.0533 14.4011 16.1486 14.4313 16.2355C14.4616 16.3223 14.5247 16.3939 14.607 16.4348C14.6894 16.4757 14.7846 16.4827 14.8721 16.4542C15.9751 16.0701 17.026 15.6567 17.9944 15.2453C20.0198 16.0795 21.7807 16.6532 22.7533 16.9494C21.8477 17.4505 20.1438 18.3492 18.0061 19.2706C17.9205 19.3075 17.853 19.3769 17.8186 19.4635C17.7841 19.5502 17.7855 19.647 17.8224 19.7326C17.8496 19.7957 17.8947 19.8494 17.9521 19.8872C18.0095 19.925 18.0768 19.9451 18.1455 19.9451C18.1919 19.9451 18.2391 19.9358 18.2845 19.9162C21.5386 18.5136 23.8067 17.1593 23.8292 17.1458C23.8884 17.1103 23.9358 17.0581 23.9655 16.9958C23.9952 16.9336 24.006 16.8639 23.9964 16.7956C23.9868 16.7272 23.9574 16.6632 23.9117 16.6115C23.866 16.5598 23.8061 16.5226 23.7394 16.5047C23.7166 16.4987 21.6235 15.9326 18.8979 14.8521C21.8239 13.5477 23.8015 12.3686 23.8292 12.352C23.8884 12.3165 23.9358 12.2643 23.9656 12.202C23.9953 12.1397 24.0061 12.0701 23.9965 12.0017Z" fill="black"/>
<path d="M16.5816 19.8605C15.0088 20.4848 13.4681 21.0056 12.0004 21.409C9.6441 20.7615 7.15302 19.8315 4.5943 18.644C4.50973 18.6047 4.41303 18.6007 4.32547 18.6327C4.23791 18.6648 4.16668 18.7303 4.12743 18.8149C4.10798 18.8568 4.09697 18.9021 4.09504 18.9482C4.0931 18.9943 4.10027 19.0404 4.11613 19.0837C4.132 19.1271 4.15625 19.1669 4.18751 19.2009C4.21876 19.2348 4.25641 19.2623 4.29829 19.2818C6.92629 20.5014 9.48655 21.4539 11.9081 22.1127C11.9685 22.1291 12.0322 22.1291 12.0927 22.1127C13.6133 21.699 15.2109 21.1611 16.841 20.5141C16.8839 20.497 16.9231 20.4717 16.9562 20.4396C16.9893 20.4074 17.0158 20.369 17.0341 20.3267C17.0524 20.2843 17.0622 20.2387 17.0629 20.1925C17.0635 20.1464 17.0551 20.1005 17.0381 20.0576C17.0036 19.971 16.9362 19.9015 16.8506 19.8646C16.7651 19.8276 16.6683 19.8262 16.5816 19.8605Z" fill="black"/>
<path d="M12 4.48145C12.0932 4.48145 12.1827 4.44441 12.2486 4.37848C12.3145 4.31254 12.3516 4.22312 12.3516 4.12988C12.3516 4.03664 12.3145 3.94722 12.2486 3.88129C12.1827 3.81536 12.0932 3.77832 12 3.77832C11.9068 3.77832 11.8173 3.81536 11.7514 3.88129C11.6855 3.94722 11.6484 4.03664 11.6484 4.12988C11.6484 4.22312 11.6855 4.31254 11.7514 4.37848C11.8173 4.44441 11.9068 4.48145 12 4.48145Z" fill="black"/>
<path d="M12 6.59473C12.0932 6.59473 12.1827 6.55769 12.2486 6.49176C12.3145 6.42583 12.3516 6.3364 12.3516 6.24316C12.3516 6.14992 12.3145 6.0605 12.2486 5.99457C12.1827 5.92864 12.0932 5.8916 12 5.8916C11.9068 5.8916 11.8173 5.92864 11.7514 5.99457C11.6855 6.0605 11.6484 6.14992 11.6484 6.24316C11.6484 6.3364 11.6855 6.42583 11.7514 6.49176C11.8173 6.55769 11.9068 6.59473 12 6.59473Z" fill="black"/>
<path d="M12 8.70801C12.0932 8.70801 12.1827 8.67097 12.2486 8.60504C12.3145 8.53911 12.3516 8.44969 12.3516 8.35645C12.3516 8.26321 12.3145 8.17378 12.2486 8.10785C12.1827 8.04192 12.0932 8.00488 12 8.00488C11.9068 8.00488 11.8173 8.04192 11.7514 8.10785C11.6855 8.17378 11.6484 8.26321 11.6484 8.35645C11.6484 8.44969 11.6855 8.53911 11.7514 8.60504C11.8173 8.67097 11.9068 8.70801 12 8.70801Z" fill="black"/>
<path d="M12 10.8218C12.0932 10.8218 12.1827 10.7847 12.2486 10.7188C12.3145 10.6529 12.3516 10.5635 12.3516 10.4702C12.3516 10.377 12.3145 10.2876 12.2486 10.2216C12.1827 10.1557 12.0932 10.1187 12 10.1187C11.9068 10.1187 11.8173 10.1557 11.7514 10.2216C11.6855 10.2876 11.6484 10.377 11.6484 10.4702C11.6484 10.5635 11.6855 10.6529 11.7514 10.7188C11.8173 10.7847 11.9068 10.8218 12 10.8218Z" fill="black"/>
<path d="M14.6406 9.93164C14.7339 9.93164 14.8233 9.8946 14.8892 9.82867C14.9551 9.76274 14.9922 9.67332 14.9922 9.58008C14.9922 9.48684 14.9551 9.39742 14.8892 9.33149C14.8233 9.26556 14.7339 9.22852 14.6406 9.22852C14.5474 9.22852 14.458 9.26556 14.392 9.33149C14.3261 9.39742 14.2891 9.48684 14.2891 9.58008C14.2891 9.67332 14.3261 9.76274 14.392 9.82867C14.458 9.8946 14.5474 9.93164 14.6406 9.93164Z" fill="black"/>
<path d="M14.6406 7.83008C14.7339 7.83008 14.8233 7.79304 14.8892 7.72711C14.9551 7.66118 14.9922 7.57176 14.9922 7.47852C14.9922 7.38528 14.9551 7.29585 14.8892 7.22992C14.8233 7.16399 14.7339 7.12695 14.6406 7.12695C14.5474 7.12695 14.458 7.16399 14.392 7.22992C14.3261 7.29585 14.2891 7.38528 14.2891 7.47852C14.2891 7.57176 14.3261 7.66118 14.392 7.72711C14.458 7.79304 14.5474 7.83008 14.6406 7.83008Z" fill="black"/>
<path d="M14.6406 5.92749C14.7339 5.92749 14.8233 5.89045 14.8892 5.82452C14.9551 5.75859 14.9922 5.66917 14.9922 5.57593C14.9922 5.48269 14.9551 5.39327 14.8892 5.32734C14.8233 5.2614 14.7339 5.22437 14.6406 5.22437C14.5474 5.22437 14.458 5.2614 14.392 5.32734C14.3261 5.39327 14.2891 5.48269 14.2891 5.57593C14.2891 5.66917 14.3261 5.75859 14.392 5.82452C14.458 5.89045 14.5474 5.92749 14.6406 5.92749Z" fill="black"/>
<path d="M17.1436 6.87305C17.2368 6.87305 17.3262 6.83601 17.3921 6.77008C17.4581 6.70415 17.4951 6.61472 17.4951 6.52148C17.4951 6.42824 17.4581 6.33882 17.3921 6.27289C17.3262 6.20696 17.2368 6.16992 17.1436 6.16992C17.0503 6.16992 16.9609 6.20696 16.895 6.27289C16.829 6.33882 16.792 6.42824 16.792 6.52148C16.792 6.61472 16.829 6.70415 16.895 6.77008C16.9609 6.83601 17.0503 6.87305 17.1436 6.87305Z" fill="black"/>
<path d="M17.1436 8.98608C17.2368 8.98608 17.3262 8.94904 17.3921 8.88311C17.4581 8.81718 17.4951 8.72776 17.4951 8.63452C17.4951 8.54128 17.4581 8.45186 17.3921 8.38593C17.3262 8.32 17.2368 8.28296 17.1436 8.28296C17.0503 8.28296 16.9609 8.32 16.895 8.38593C16.829 8.45186 16.792 8.54128 16.792 8.63452C16.792 8.72776 16.829 8.81718 16.895 8.88311C16.9609 8.94904 17.0503 8.98608 17.1436 8.98608Z" fill="black"/>
<path d="M20.0537 7.57812C20.0537 7.48488 20.0167 7.39546 19.9507 7.32953C19.8848 7.2636 19.7954 7.22656 19.7021 7.22656C19.6089 7.22656 19.5195 7.2636 19.4536 7.32953C19.3876 7.39546 19.3506 7.48488 19.3506 7.57812C19.3506 7.67137 19.3876 7.76079 19.4536 7.82672C19.5195 7.89265 19.6089 7.92969 19.7021 7.92969C19.7954 7.92969 19.8848 7.89265 19.9507 7.82672C20.0167 7.76079 20.0537 7.67137 20.0537 7.57812Z" fill="black"/>
<path d="M9.35938 9.93164C9.45262 9.93164 9.54204 9.8946 9.60797 9.82867C9.6739 9.76274 9.71094 9.67332 9.71094 9.58008C9.71094 9.48684 9.6739 9.39742 9.60797 9.33149C9.54204 9.26556 9.45262 9.22852 9.35938 9.22852C9.26613 9.22852 9.17671 9.26556 9.11078 9.33149C9.04485 9.39742 9.00781 9.48684 9.00781 9.58008C9.00781 9.67332 9.04485 9.76274 9.11078 9.82867C9.17671 9.8946 9.26613 9.93164 9.35938 9.93164Z" fill="black"/>
<path d="M9.35938 7.83008C9.45262 7.83008 9.54204 7.79304 9.60797 7.72711C9.6739 7.66118 9.71094 7.57176 9.71094 7.47852C9.71094 7.38528 9.6739 7.29585 9.60797 7.22992C9.54204 7.16399 9.45262 7.12695 9.35938 7.12695C9.26613 7.12695 9.17671 7.16399 9.11078 7.22992C9.04485 7.29585 9.00781 7.38528 9.00781 7.47852C9.00781 7.57176 9.04485 7.66118 9.11078 7.72711C9.17671 7.79304 9.26613 7.83008 9.35938 7.83008Z" fill="black"/>
<path d="M9.35938 5.92749C9.45262 5.92749 9.54204 5.89045 9.60797 5.82452C9.6739 5.75859 9.71094 5.66917 9.71094 5.57593C9.71094 5.48269 9.6739 5.39327 9.60797 5.32734C9.54204 5.2614 9.45262 5.22437 9.35938 5.22437C9.26613 5.22437 9.17671 5.2614 9.11078 5.32734C9.04485 5.39327 9.00781 5.48269 9.00781 5.57593C9.00781 5.66917 9.04485 5.75859 9.11078 5.82452C9.17671 5.89045 9.26613 5.92749 9.35938 5.92749Z" fill="black"/>
<path d="M6.85645 6.87305C6.94969 6.87305 7.03911 6.83601 7.10504 6.77008C7.17097 6.70415 7.20801 6.61472 7.20801 6.52148C7.20801 6.45195 7.18739 6.38398 7.14876 6.32617C7.11013 6.26835 7.05522 6.22329 6.99098 6.19668C6.92674 6.17007 6.85606 6.16311 6.78786 6.17668C6.71966 6.19024 6.65702 6.22373 6.60785 6.27289C6.55869 6.32206 6.5252 6.3847 6.51164 6.4529C6.49807 6.52109 6.50504 6.59178 6.53164 6.65602C6.55825 6.72026 6.60331 6.77517 6.66113 6.8138C6.71894 6.85243 6.78691 6.87305 6.85645 6.87305Z" fill="black"/>
<path d="M6.85645 8.98608C6.94969 8.98608 7.03911 8.94904 7.10504 8.88311C7.17097 8.81718 7.20801 8.72776 7.20801 8.63452C7.20801 8.56499 7.18739 8.49702 7.14876 8.4392C7.11013 8.38139 7.05522 8.33633 6.99098 8.30972C6.92674 8.28311 6.85606 8.27615 6.78786 8.28971C6.71966 8.30328 6.65702 8.33676 6.60785 8.38593C6.55869 8.4351 6.5252 8.49774 6.51164 8.56594C6.49807 8.63413 6.50504 8.70482 6.53164 8.76906C6.55825 8.8333 6.60331 8.8882 6.66113 8.92684C6.71894 8.96547 6.78691 8.98608 6.85645 8.98608Z" fill="black"/>
<path d="M4.29785 7.92969C4.39109 7.92969 4.48051 7.89265 4.54644 7.82672C4.61237 7.76079 4.64941 7.67137 4.64941 7.57812C4.64941 7.50859 4.6288 7.44062 4.59017 7.38281C4.55154 7.32499 4.49663 7.27993 4.43239 7.25332C4.36815 7.22671 4.29746 7.21975 4.22927 7.23332C4.16107 7.24688 4.09843 7.28037 4.04926 7.32953C4.00009 7.3787 3.96661 7.44134 3.95304 7.50954C3.93948 7.57774 3.94644 7.64842 3.97305 7.71266C3.99966 7.7769 4.04472 7.83181 4.10253 7.87044C4.16035 7.90907 4.22832 7.92969 4.29785 7.92969Z" fill="black"/>
</g>
</g>
<defs>
<clipPath id="clip0_3335_41859">
<rect width="24" height="24" fill="white"/>
</clipPath>
</defs>
</svg>
