<svg xmlns="http://www.w3.org/2000/svg" version="1.1" xmlns:xlink="http://www.w3.org/1999/xlink" width="512" height="512" x="0" y="0" viewBox="0 0 682.667 682.667" style="enable-background:new 0 0 512 512" xml:space="preserve"><g><defs><clipPath id="a" clipPathUnits="userSpaceOnUse"><path d="M0 512h512V0H0Z" fill="#000000" opacity="1" data-original="#000000"></path></clipPath></defs><g clip-path="url(#a)" transform="matrix(1.33333 0 0 -1.33333 0 682.667)"><path d="M0 0h-133.098c-6.011 0-10.883 4.873-10.883 10.884v18.037c0 6.012 4.872 10.884 10.883 10.884H0c6.011 0 10.884-4.872 10.884-10.884V10.884C10.884 4.873 6.011 0 0 0Z" style="stroke-linecap: round; stroke-linejoin: round; stroke-miterlimit: 10; stroke-dasharray: none; stroke-opacity: 1;" transform="translate(182.654 54.435)" fill="none" stroke="#000000" stroke-width="15px" stroke-linecap="round" stroke-linejoin="round" stroke-miterlimit="10" stroke-dasharray="none" stroke-opacity="" data-original="#000000"></path><path d="M0 0h-100.755l-13.475-38.061c-1.533-4.33 1.679-8.875 6.272-8.875H7.203c4.593 0 7.805 4.545 6.272 8.875z" style="stroke-linecap: round; stroke-linejoin: round; stroke-miterlimit: 10; stroke-dasharray: none; stroke-opacity: 1;" transform="translate(166.483 54.435)" fill="none" stroke="#000000" stroke-width="15px" stroke-linecap="round" stroke-linejoin="round" stroke-miterlimit="10" stroke-dasharray="none" stroke-opacity="" data-original="#000000"></path><path d="M0 0h-209.415c-6.011 0-10.884 4.873-10.884 10.884v28.817c0 6.01 4.873 10.883 10.884 10.883H0c6.011 0 10.884-4.873 10.884-10.883V10.884C10.884 4.873 6.011 0 0 0Z" style="stroke-linecap: round; stroke-linejoin: round; stroke-miterlimit: 10; stroke-dasharray: none; stroke-opacity: 1;" transform="translate(468.838 130.649)" fill="none" stroke="#000000" stroke-width="15px" stroke-linecap="round" stroke-linejoin="round" stroke-miterlimit="10" stroke-dasharray="none" stroke-opacity="" data-original="#000000"></path><path d="m0 0-3.825-14.91a100.432 100.432 0 0 0-14.9-32.51 100.574 100.574 0 0 0-25.322-25.262l10.04-38.726h-169.402l10.041 38.726A100.701 100.701 0 0 0-233.59-14.91L-237.416 0a136.24 136.24 0 0 0 7.953 90.293l14.207 31.247 17.631 38.765a25.33 25.33 0 0 1 .803 19.027l-5.201 14.579c-3.123 8.755 3.364 17.952 12.651 17.952h141.329c9.287 0 15.773-9.197 12.65-17.952l-5.2-14.579a25.33 25.33 0 0 1 .803-19.027l17.631-38.765 14.207-31.247A136.296 136.296 0 0 0 0 0Z" style="stroke-linecap: round; stroke-linejoin: round; stroke-miterlimit: 10; stroke-dasharray: none; stroke-opacity: 1;" transform="translate(483.06 292.637)" fill="none" stroke="#000000" stroke-width="15px" stroke-linecap="round" stroke-linejoin="round" stroke-miterlimit="10" stroke-dasharray="none" stroke-opacity="" data-original="#000000"></path><path d="M0 0h-162.42l-19.886-115.445c-.645-4.043 2.477-7.704 6.571-7.704h189.05c4.094 0 7.216 3.661 6.571 7.704L6.173-35.837" style="stroke-linecap: round; stroke-linejoin: round; stroke-miterlimit: 10; stroke-dasharray: none; stroke-opacity: 1;" transform="translate(445.34 130.649)" fill="none" stroke="#000000" stroke-width="15px" stroke-linecap="round" stroke-linejoin="round" stroke-miterlimit="10" stroke-dasharray="none" stroke-opacity="" data-original="#000000"></path><path d="M0 0v-33.796A44.69 44.69 0 0 1 2.922-49.68l11.135-29.197h-111.8l11.124 29.197a44.48 44.48 0 0 1 2.932 15.884V-.01" style="stroke-linecap: round; stroke-linejoin: round; stroke-miterlimit: 10; stroke-dasharray: none; stroke-opacity: 1;" transform="translate(155.822 173.117)" fill="none" stroke="#000000" stroke-width="15px" stroke-linecap="round" stroke-linejoin="round" stroke-miterlimit="10" stroke-dasharray="none" stroke-opacity="" data-original="#000000"></path><path d="M0 0v.291l-10.452 36.477c-1.808 6.305 2.921 12.59 9.488 12.59H84.65c6.557 0 11.296-6.285 9.489-12.59L83.687.291V-.01" style="stroke-linecap: round; stroke-linejoin: round; stroke-miterlimit: 10; stroke-dasharray: none; stroke-opacity: 1;" transform="translate(72.136 292.557)" fill="none" stroke="#000000" stroke-width="15px" stroke-linecap="round" stroke-linejoin="round" stroke-miterlimit="10" stroke-dasharray="none" stroke-opacity="" data-original="#000000"></path><path d="M0 0c-5.093-24.021-26.422-42.045-51.961-42.045h-72.372c-29.336 0-53.118 23.781-53.118 53.117v13.803c0 29.336 23.782 53.118 53.118 53.118h72.372c25.668 0 47.085-18.208 52.038-42.412" style="stroke-linecap: round; stroke-linejoin: round; stroke-miterlimit: 10; stroke-dasharray: none; stroke-opacity: 1;" transform="translate(202.115 214.856)" fill="none" stroke="#000000" stroke-width="15px" stroke-linecap="round" stroke-linejoin="round" stroke-miterlimit="10" stroke-dasharray="none" stroke-opacity="" data-original="#000000"></path><path d="M0 0s40.223 37.88 78.104 0M0 0s40.223-37.88 78.104 0" style="stroke-linecap: round; stroke-linejoin: round; stroke-miterlimit: 10; stroke-dasharray: none; stroke-opacity: 1;" transform="translate(77.054 245.83)" fill="none" stroke="#000000" stroke-width="15px" stroke-linecap="round" stroke-linejoin="round" stroke-miterlimit="10" stroke-dasharray="none" stroke-opacity="" data-original="#000000"></path><path d="m0 0 14.917-20.687a20.197 20.197 0 0 0 3.813-11.81" style="stroke-linecap: round; stroke-linejoin: round; stroke-miterlimit: 10; stroke-dasharray: none; stroke-opacity: 1;" transform="translate(97.375 233.272)" fill="none" stroke="#000000" stroke-width="15px" stroke-linecap="round" stroke-linejoin="round" stroke-miterlimit="10" stroke-dasharray="none" stroke-opacity="" data-original="#000000"></path><path d="m0 0-3.825-14.91a100.432 100.432 0 0 0-14.9-32.51 100.574 100.574 0 0 0-25.322-25.262h-149.321A100.701 100.701 0 0 0-233.59-14.91L-237.416 0a136.24 136.24 0 0 0 7.953 90.293l14.207 31.247h193.097l14.207-31.247A136.296 136.296 0 0 0 0 0Z" style="stroke-linecap: round; stroke-linejoin: round; stroke-miterlimit: 10; stroke-dasharray: none; stroke-opacity: 1;" transform="translate(483.06 292.637)" fill="none" stroke="#000000" stroke-width="15px" stroke-linecap="round" stroke-linejoin="round" stroke-miterlimit="10" stroke-dasharray="none" stroke-opacity="" data-original="#000000"></path><path d="M0 0h14.048a8.772 8.772 0 0 1 8.772 8.773v7.465a8.773 8.773 0 0 0 8.773 8.773H87.58a8.773 8.773 0 0 1 8.773 8.773 8.773 8.773 0 0 0 8.773 8.772h11.512" style="stroke-linecap: round; stroke-linejoin: round; stroke-miterlimit: 10; stroke-dasharray: none; stroke-opacity: 1;" transform="translate(306.032 314.64)" fill="none" stroke="#000000" stroke-width="15px" stroke-linecap="round" stroke-linejoin="round" stroke-miterlimit="10" stroke-dasharray="none" stroke-opacity="" data-original="#000000"></path><path d="M0 0v-27.943c0-6.37 5.165-11.535 11.535-11.535h14.964c6.371 0 11.535-5.164 11.535-11.535v-7.704c0-6.37-5.164-11.534-11.535-11.534h-58.194" style="stroke-linecap: round; stroke-linejoin: round; stroke-miterlimit: 10; stroke-dasharray: none; stroke-opacity: 1;" transform="translate(364.35 339.65)" fill="none" stroke="#000000" stroke-width="15px" stroke-linecap="round" stroke-linejoin="round" stroke-miterlimit="10" stroke-dasharray="none" stroke-opacity="" data-original="#000000"></path><path d="M0 0a7.644 7.644 0 0 0 7.644 7.644A7.644 7.644 0 1 0 0 0" style="fill-opacity:1;fill-rule:nonzero;stroke:none" transform="translate(356.487 371.249)" fill="#000000" data-original="#000000"></path><path d="M0 0h-23.125" style="stroke-linecap: round; stroke-linejoin: round; stroke-miterlimit: 10; stroke-dasharray: none; stroke-opacity: 1;" transform="translate(310.787 461.949)" fill="none" stroke="#000000" stroke-width="15px" stroke-linecap="round" stroke-linejoin="round" stroke-miterlimit="10" stroke-dasharray="none" stroke-opacity="" data-original="#000000"></path><path d="M0 0h-94.626" style="stroke-linecap: round; stroke-linejoin: round; stroke-miterlimit: 10; stroke-dasharray: none; stroke-opacity: 1;" transform="translate(441.04 461.949)" fill="none" stroke="#000000" stroke-width="15px" stroke-linecap="round" stroke-linejoin="round" stroke-miterlimit="10" stroke-dasharray="none" stroke-opacity="" data-original="#000000"></path></g></g></svg>