<svg width="24" height="24" viewBox="0 0 24 24" fill="none" xmlns="http://www.w3.org/2000/svg">
<path d="M20.1604 3.41563C20.9114 3.22527 21.4687 2.54376 21.4687 1.73437C21.4687 0.77803 20.6907 0 19.7343 0H4.26562C3.30933 0 2.53125 0.77803 2.53125 1.73437C2.53125 2.54376 3.08859 3.22527 3.83962 3.41563C3.03994 4.0963 2.53125 5.10913 2.53125 6.23914C2.53125 7.92645 3.90398 9.29918 5.59129 9.29918C6.19907 9.29918 6.75749 9.08454 7.1953 8.7274V20.5312H7.0078C6.09023 20.5312 5.34374 21.2777 5.34374 22.1953V23.5312C5.34374 23.7901 5.5536 24 5.81249 24H10.2343C10.4932 24 10.7031 23.7901 10.7031 23.5312C10.7031 23.2723 10.4932 23.0625 10.2343 23.0625H6.28124V22.1953C6.28124 21.7947 6.60716 21.4687 7.0078 21.4687H16.9922C17.3928 21.4687 17.7187 21.7946 17.7187 22.1953V23.0625H13.7968C13.5379 23.0625 13.3281 23.2723 13.3281 23.5312C13.3281 23.7901 13.5379 24 13.7968 24H18.1875C18.4464 24 18.6562 23.7901 18.6562 23.5312V22.1953C18.6562 21.2777 17.9097 20.5312 16.9922 20.5312H16.8027V8.72586C17.2408 9.08393 17.8 9.29918 18.4086 9.29918C20.0959 9.29918 21.4687 7.92645 21.4687 6.23914C21.4687 5.10913 20.9601 4.0963 20.1604 3.41563ZM3.46875 1.73437C3.46875 1.29497 3.82622 0.937498 4.26562 0.937498H19.7343C20.1737 0.937498 20.5312 1.29497 20.5312 1.73437C20.5312 2.17378 20.1737 2.53124 19.7343 2.53124H4.26562C3.82622 2.53124 3.46875 2.17378 3.46875 1.73437ZM15.8652 20.5312H13.9128V12.0059C13.9128 11.747 13.7029 11.5372 13.444 11.5372C13.1851 11.5372 12.9753 11.747 12.9753 12.0059V20.5312H8.1328V7.22614H10.0853V17.4843C10.0853 17.7432 10.2951 17.9531 10.554 17.9531C10.8129 17.9531 11.0228 17.7432 11.0228 17.4843V7.22614H15.8652V20.5312ZM18.4087 8.36169C17.524 8.36169 16.8044 7.64197 16.8044 6.75739C16.8044 6.10138 17.338 5.56771 17.9941 5.56771C18.4672 5.56771 18.8521 5.9526 18.8521 6.42571C18.8521 6.75247 18.5862 7.01835 18.2594 7.01835C18.0005 7.01835 17.7907 7.2282 17.7907 7.48709C17.7907 7.74599 18.0005 7.95584 18.2594 7.95584C19.1032 7.95584 19.7896 7.26941 19.7896 6.42571C19.7896 5.43566 18.9841 4.63021 17.9941 4.63021C16.981 4.63021 16.1317 5.34219 15.9188 6.29192C15.9012 6.28991 15.8834 6.28864 15.8652 6.28864H8.12924C8.11297 6.28864 8.0969 6.28949 8.08105 6.29113C7.86782 5.34182 7.01873 4.63026 6.00599 4.63026C5.01595 4.63026 4.2105 5.43571 4.2105 6.42575C4.2105 7.2695 4.89693 7.95589 5.74063 7.95589C5.99952 7.95589 6.20938 7.74603 6.20938 7.48714C6.20938 7.22825 5.99952 7.01839 5.74063 7.01839C5.41387 7.01839 5.14799 6.75252 5.14799 6.42575C5.14799 5.95264 5.53288 5.56775 6.00599 5.56775C6.6607 5.56775 7.19343 6.09932 7.19558 6.7535C7.19558 6.75481 7.1954 6.75608 7.1954 6.75744V6.76916C7.18902 7.64834 6.47207 8.36173 5.59138 8.36173C4.42092 8.36169 3.46875 7.40952 3.46875 6.23914C3.46875 4.71154 4.71154 3.46874 6.23915 3.46874H17.7609C19.2885 3.46874 20.5312 4.71154 20.5312 6.23914C20.5312 7.40952 19.5791 8.36169 18.4087 8.36169Z" fill="black"/>
<path d="M11.979 23.0625H11.9727C11.7138 23.0625 11.5039 23.2724 11.5039 23.5313C11.5039 23.7902 11.7138 24 11.9727 24H11.979C12.2379 24 12.4477 23.7902 12.4477 23.5313C12.4477 23.2724 12.2379 23.0625 11.979 23.0625ZM13.7754 9.88734C13.6873 9.79976 13.5682 9.75041 13.444 9.75C13.3202 9.75 13.1997 9.80016 13.1126 9.88734C13.0249 9.97453 12.9752 10.0955 12.9752 10.2188C12.9752 10.342 13.0249 10.463 13.1126 10.5502C13.1997 10.6373 13.3202 10.6875 13.444 10.6875C13.5673 10.6875 13.6877 10.6373 13.7754 10.5502C13.8626 10.463 13.9127 10.342 13.9127 10.2188C13.9128 10.0955 13.8626 9.97453 13.7754 9.88734Z" fill="black"/>
</svg>
