<svg width="24" height="24" viewBox="0 0 24 24" fill="none" xmlns="http://www.w3.org/2000/svg">
<path d="M14.8429 16.5177C14.691 16.5177 14.5513 16.4188 14.5058 16.266C14.4505 16.0799 14.5569 15.8845 14.743 15.8291L20.5855 14.1004C20.7716 14.0456 20.9671 14.1515 21.0224 14.3376C21.0777 14.5237 20.9713 14.7191 20.7852 14.7745L14.9427 16.5032C14.9094 16.5131 14.8757 16.5177 14.8429 16.5177Z" fill="black"/>
<mask id="mask0_3341_14851" style="mask-type:luminance" maskUnits="userSpaceOnUse" x="0" y="0" width="24" height="24">
<path d="M24 0H0V24H24V0Z" fill="white"/>
</mask>
<g mask="url(#mask0_3341_14851)">
<path d="M13.1788 14.7507C13.0269 14.7507 12.8872 14.6518 12.8418 14.499C12.7865 14.3129 12.8929 14.1174 13.079 14.0621L21.7237 11.5041C21.8554 11.4652 21.9922 11.4451 22.131 11.4451C22.7615 11.4451 23.3272 11.8679 23.5068 12.473C23.6155 12.841 23.5747 13.2287 23.3915 13.5657C23.2082 13.9023 22.9054 14.1479 22.5374 14.2566L22.124 14.379C21.9374 14.4343 21.7424 14.3279 21.6871 14.1418C21.6318 13.9557 21.7382 13.7602 21.9243 13.7049L22.3377 13.5826C22.5252 13.5273 22.6799 13.4021 22.7732 13.2301C22.8665 13.0585 22.8876 12.8607 22.8318 12.6732C22.7404 12.3648 22.4516 12.1487 22.1301 12.1487C22.0593 12.1487 21.9894 12.1585 21.9229 12.1787L13.2777 14.7366C13.2444 14.7465 13.2107 14.7512 13.1779 14.7512L13.1788 14.7507Z" fill="black"/>
<path d="M1.86801 20.3109C1.23754 20.3109 0.672231 19.8881 0.492699 19.283C0.268168 18.5241 0.703168 17.7239 1.46161 17.4998L9.39989 15.1509C9.58598 15.0961 9.78145 15.202 9.83676 15.3881C9.89208 15.5742 9.78567 15.7697 9.59958 15.825L1.66129 18.1739C1.27411 18.2883 1.05239 18.6966 1.16676 19.0833C1.25817 19.3917 1.54645 19.6078 1.86801 19.6078C1.93786 19.6078 2.0077 19.5975 2.07614 19.5773L8.88379 17.5631C9.07036 17.5083 9.26536 17.6142 9.32067 17.8003C9.37598 17.9864 9.26958 18.1819 9.08348 18.2372L2.27629 20.2514C2.14364 20.2908 2.00629 20.3109 1.86848 20.3109H1.86801Z" fill="black"/>
<path d="M17.7704 13.3922C17.7122 13.3922 17.6546 13.3776 17.6026 13.3495C17.5205 13.305 17.4596 13.23 17.4333 13.1404L16.6097 10.357C16.4415 9.78794 16.7672 9.18794 17.3363 9.01966C17.9054 8.85138 18.5054 9.17716 18.6741 9.74622L19.4977 12.5297C19.553 12.7158 19.4466 12.9112 19.2605 12.9665L17.8702 13.3781C17.8374 13.3879 17.8041 13.3926 17.7704 13.3926V13.3922ZM17.6415 9.67825C17.6063 9.67825 17.5712 9.68341 17.5355 9.69372C17.3382 9.75231 17.2252 9.95997 17.2833 10.1578L18.0071 12.6042L18.7229 12.3923L17.9991 9.94591C17.9513 9.78372 17.8022 9.67872 17.641 9.67872L17.6415 9.67825Z" fill="black"/>
<path d="M4.22494 17.4004C4.16682 17.4004 4.10916 17.3859 4.05713 17.3578C3.9751 17.3132 3.91416 17.2383 3.88791 17.1487L3.06432 14.3653C2.98276 14.0897 3.01322 13.7986 3.15057 13.5459C3.28791 13.2933 3.51526 13.109 3.79088 13.0275C4.35994 12.8592 4.95994 13.185 5.12822 13.754L5.95182 16.5375C6.00713 16.7236 5.90072 16.919 5.71463 16.9743L4.32432 17.3859C4.29151 17.3958 4.25822 17.4004 4.22447 17.4004H4.22494ZM4.09604 13.6865C4.06088 13.6865 4.02572 13.6917 3.9901 13.702C3.89447 13.7301 3.81572 13.7943 3.76791 13.8815C3.7201 13.9692 3.70979 14.07 3.73791 14.1656L4.46166 16.612L5.17744 16.4001L4.45369 13.9537C4.40588 13.7915 4.25682 13.6865 4.09557 13.6865H4.09604Z" fill="black"/>
<path d="M15.0167 21.8334H8.98438C8.79031 21.8334 8.63281 21.6759 8.63281 21.4818V17.1763C8.63281 15.3191 10.1436 13.8083 12.0008 13.8083C13.858 13.8083 15.3687 15.3191 15.3687 17.1763V21.4818C15.3687 21.6759 15.2112 21.8334 15.0172 21.8334H15.0167ZM9.33594 21.1302H14.6652V17.1763C14.6652 15.7068 13.4698 14.5115 12.0003 14.5115C10.5308 14.5115 9.33547 15.7068 9.33547 17.1763V21.1302H9.33594Z" fill="black"/>
<path d="M12 18.9465C11.024 18.9465 10.2295 18.1524 10.2295 17.176C10.2295 16.1996 11.0236 15.4055 12 15.4055C12.9764 15.4055 13.7704 16.1996 13.7704 17.176C13.7704 18.1524 12.9764 18.9465 12 18.9465ZM12 16.1091C11.4117 16.1091 10.9326 16.5877 10.9326 17.1765C10.9326 17.7652 11.4112 18.2438 12 18.2438C12.5887 18.2438 13.0673 17.7652 13.0673 17.1765C13.0673 16.5877 12.5887 16.1091 12 16.1091Z" fill="black"/>
<path d="M21.0439 21.8335C20.8498 21.8335 20.6923 21.676 20.6923 21.4819C20.6923 20.5271 19.9264 19.7251 19.9184 19.7171C19.7834 19.5779 19.7867 19.3552 19.9264 19.2202C20.0661 19.0852 20.2882 19.0885 20.4232 19.2282C20.442 19.2479 20.6632 19.479 20.8897 19.8493C21.0401 19.314 21.2764 18.8804 21.597 18.5532C21.7329 18.4144 21.9556 18.4126 22.0943 18.548C22.2331 18.684 22.2354 18.9066 22.0995 19.0454C21.7784 19.373 21.3954 20.0621 21.3954 21.4824C21.3954 21.6765 21.2379 21.834 21.0439 21.834V21.8335Z" fill="black"/>
<path d="M22.5652 24.0001H1.43484C1.05187 24.0001 0.691406 23.851 0.420469 23.5796C0.152813 23.3129 0 22.943 0 22.5647C0 21.774 0.643594 21.1304 1.43484 21.1304H3.34125C3.53531 21.1304 3.69281 21.2879 3.69281 21.4819C3.69281 21.676 3.53531 21.8335 3.34125 21.8335H1.43484C1.03125 21.8335 0.703125 22.1616 0.703125 22.5652C0.703125 22.7579 0.780937 22.9463 0.917344 23.0822C1.05609 23.221 1.23984 23.2969 1.43484 23.2969H22.5652C22.9688 23.2969 23.2969 22.9688 23.2969 22.5652C23.2969 22.3726 23.2191 22.1841 23.0831 22.0482C22.9448 21.9094 22.7611 21.8335 22.5652 21.8335H4.7475C4.55344 21.8335 4.39594 21.676 4.39594 21.4819C4.39594 21.2879 4.55344 21.1304 4.7475 21.1304H22.5652C22.9491 21.1304 23.3095 21.2799 23.58 21.5508C23.8472 21.8176 24.0005 22.1874 24 22.5657C24 23.3565 23.3564 24.0001 22.5652 24.0001Z" fill="black"/>
<path d="M21.5171 4.96594H18.968C17.9377 4.96594 17.0996 4.12781 17.0996 3.0975C17.0996 2.06719 17.9377 1.22906 18.968 1.22906C19.0979 1.22906 19.2259 1.24219 19.351 1.26844C19.7865 0.488438 20.6054 0 21.5171 0C22.8863 0 24.0001 1.11375 24.0001 2.48297C24.0001 3.85219 22.8863 4.96594 21.5171 4.96594ZM18.968 1.93219C18.3254 1.93219 17.8027 2.45484 17.8027 3.0975C17.8027 3.74016 18.3254 4.26281 18.968 4.26281H21.5171C22.4987 4.26281 23.297 3.46453 23.297 2.48297C23.297 1.50141 22.4987 0.703125 21.5171 0.703125C20.7854 0.703125 20.1366 1.14234 19.8648 1.8225C19.8301 1.90922 19.7621 1.97859 19.6759 2.01562C19.5896 2.05219 19.4926 2.05312 19.4059 2.01797C19.2662 1.96125 19.119 1.93266 18.968 1.93266V1.93219Z" fill="black"/>
<path d="M5.60812 9.20997H3.53016C2.37844 9.20997 1.44141 8.27294 1.44141 7.12122C1.44141 5.9695 2.37844 5.03247 3.53016 5.03247C4.28109 5.03247 4.9575 5.42669 5.32922 6.05903C5.42062 6.04263 5.51391 6.03466 5.60812 6.03466C6.48375 6.03466 7.19625 6.74716 7.19625 7.62278C7.19625 8.49841 6.48375 9.21091 5.60812 9.21091V9.20997ZM3.53016 5.73513C2.76609 5.73513 2.14453 6.35669 2.14453 7.12075C2.14453 7.88481 2.76609 8.50638 3.53016 8.50638H5.60812C6.09609 8.50638 6.49312 8.10935 6.49312 7.62138C6.49312 7.13341 6.09609 6.73638 5.60812 6.73638C5.49328 6.73638 5.38172 6.75841 5.27578 6.80106C5.18906 6.83622 5.09203 6.83528 5.00578 6.79872C4.91953 6.76216 4.85156 6.69278 4.81687 6.6056C4.605 6.07638 4.10016 5.73419 3.53016 5.73419V5.73513Z" fill="black"/>
<path d="M17.7434 21.833C17.7237 21.833 17.704 21.8312 17.6843 21.8279C17.5151 21.7993 17.3918 21.653 17.3918 21.4815C17.3918 20.6185 16.5907 19.936 16.5828 19.929C16.4342 19.8043 16.4145 19.583 16.5387 19.434C16.6629 19.2854 16.8837 19.2648 17.0328 19.3885C17.0618 19.4129 17.5339 19.8109 17.8385 20.4338C18.0101 20.1273 18.2299 19.7977 18.4924 19.5352C18.6298 19.3979 18.8524 19.3979 18.9898 19.5352C19.1271 19.6726 19.1271 19.8952 18.9898 20.0326C18.4324 20.5904 18.079 21.5874 18.0757 21.5977C18.0256 21.7407 17.891 21.8335 17.7439 21.8335L17.7434 21.833Z" fill="black"/>
</g>
</svg>
