<svg width="24" height="24" viewBox="0 0 24 24" fill="none" xmlns="http://www.w3.org/2000/svg">
<g clip-path="url(#clip0_3367_15467)">
<g clip-path="url(#clip1_3367_15467)">
<path d="M6.26977 6.92193H1.69709C0.839915 6.92193 0.142578 7.61931 0.142578 8.47649V13.5701C0.142578 14.1749 0.634594 14.667 1.23946 14.667C1.37244 14.667 1.47637 14.6669 1.55696 14.6668V21.3414C1.55696 21.9462 2.04898 22.4383 2.65384 22.4383C3.25871 22.4383 3.75073 21.9463 3.75073 21.3414V15.2685C3.75079 15.2132 3.77279 15.1602 3.8119 15.1211C3.851 15.082 3.90402 15.06 3.95931 15.06H4.0076C4.06288 15.06 4.11589 15.082 4.15498 15.1211C4.19407 15.1602 4.21607 15.2132 4.21614 15.2685V21.3414C4.21614 21.9463 4.7082 22.4383 5.31307 22.4383C5.91789 22.4383 6.40995 21.9463 6.40995 21.3414V14.6669C6.49055 14.667 6.59448 14.6671 6.72745 14.6671C7.33227 14.6671 7.82434 14.175 7.82434 13.5702V8.47654C7.82434 7.61932 7.12695 6.92193 6.26977 6.92193ZM7.3137 13.5702C7.3137 13.8934 7.05071 14.1564 6.72745 14.1564C6.5937 14.1564 6.49034 14.1563 6.40995 14.1562V8.89611C6.40995 8.82839 6.38305 8.76345 6.33517 8.71557C6.28729 8.66769 6.22235 8.64079 6.15464 8.64079C6.08692 8.64079 6.02198 8.66769 5.9741 8.71557C5.92622 8.76345 5.89932 8.82839 5.89932 8.89611V21.3415C5.89932 21.6648 5.63633 21.9277 5.31302 21.9277C4.98976 21.9277 4.72677 21.6648 4.72677 21.3415V15.2685C4.72677 14.872 4.40414 14.5493 4.0076 14.5493H3.95931C3.56273 14.5493 3.24009 14.872 3.24009 15.2685V21.3414C3.24009 21.6647 2.9771 21.9277 2.65384 21.9277C2.33059 21.9277 2.06759 21.6647 2.06759 21.3414V8.89611C2.06759 8.82839 2.04069 8.76345 1.99281 8.71557C1.94493 8.66769 1.87999 8.64079 1.81228 8.64079C1.74456 8.64079 1.67962 8.66769 1.63174 8.71557C1.58386 8.76345 1.55696 8.82839 1.55696 8.89611V14.1562C1.47652 14.1563 1.37321 14.1564 1.23946 14.1564C0.916205 14.1564 0.653212 13.8934 0.653212 13.5702V8.47654C0.653212 7.90093 1.12147 7.43261 1.69709 7.43261H6.26977C6.84539 7.43261 7.3137 7.90093 7.3137 8.47654V13.5702ZM3.98348 1.61172C2.67832 1.61172 1.6165 2.67354 1.6165 3.9787C1.6165 5.28386 2.67832 6.34569 3.98348 6.34569C5.28864 6.34569 6.35047 5.28386 6.35047 3.9787C6.35047 2.67354 5.28864 1.61172 3.98348 1.61172ZM3.98348 5.8351C2.95988 5.8351 2.12713 5.0023 2.12713 3.97875C2.12713 2.95515 2.95993 2.1224 3.98348 2.1224C5.00708 2.1224 5.83983 2.9552 5.83983 3.97875C5.83983 5.0023 5.00703 5.8351 3.98348 5.8351ZM19.7924 1.61172C18.4873 1.61172 17.4255 2.67354 17.4255 3.9787C17.4255 5.28386 18.4873 6.34569 19.7924 6.34569C21.0976 6.34569 22.1594 5.28386 22.1594 3.9787C22.1594 2.67354 21.0976 1.61172 19.7924 1.61172ZM19.7924 5.8351C18.7688 5.8351 17.9361 5.0023 17.9361 3.97875C17.9361 2.95515 18.7689 2.1224 19.7924 2.1224C20.816 2.1224 21.6488 2.9552 21.6488 3.97875C21.6488 5.0023 20.816 5.8351 19.7924 5.8351ZM23.8274 12.4604L22.8991 8.05122C22.7613 7.39693 22.176 6.92198 21.5073 6.92198H18.0775C17.4088 6.92198 16.8235 7.39693 16.6857 8.05122L15.7573 12.4604C15.7133 12.6675 15.7162 12.8819 15.766 13.0877C15.8157 13.2935 15.9109 13.4855 16.0446 13.6497C16.2466 13.8995 16.5275 14.0732 16.8413 14.1422L16.5262 15.6395C16.5184 15.6767 16.5189 15.7152 16.5278 15.7521C16.5368 15.789 16.5538 15.8235 16.5777 15.853C16.6017 15.8825 16.6319 15.9063 16.6662 15.9226C16.7005 15.9389 16.738 15.9474 16.776 15.9474H17.8539V16.086C17.8539 16.0913 17.8541 16.0967 17.8545 16.102L18.1993 21.5714C18.2299 22.0576 18.6355 22.4383 19.1226 22.4383C19.3858 22.4383 19.6237 22.3278 19.7924 22.1507C19.961 22.3278 20.1989 22.4383 20.4622 22.4383C20.9493 22.4383 21.3548 22.0576 21.3855 21.5714L21.7303 16.102C21.7307 16.0967 21.7308 16.0913 21.7308 16.086V15.9474H22.8087C22.8467 15.9474 22.8842 15.9389 22.9185 15.9226C22.9528 15.9062 22.983 15.8824 23.0069 15.8529C23.0309 15.8234 23.0479 15.789 23.0568 15.752C23.0658 15.7151 23.0663 15.6766 23.0585 15.6395L22.7431 14.1423C23.057 14.0733 23.3381 13.8995 23.5401 13.6496C23.6738 13.4855 23.7691 13.2934 23.8188 13.0876C23.8685 12.8818 23.8715 12.6675 23.8274 12.4604ZM19.5371 21.5132C19.5371 21.7417 19.3511 21.9276 19.1226 21.9276C18.9044 21.9276 18.7226 21.7571 18.7089 21.5392L18.3646 16.0779V15.9474H19.5371L19.5371 21.5132ZM21.2202 16.0779L20.8759 21.5392C20.8622 21.7571 20.6805 21.9276 20.4622 21.9276C20.2337 21.9276 20.0478 21.7417 20.0478 21.5132V15.9474H21.2203V16.0779H21.2202ZM23.1436 13.3279C23.0153 13.4867 22.8371 13.5976 22.6379 13.6426L21.6269 8.84347C21.6129 8.77725 21.5731 8.71931 21.5164 8.68233C21.4597 8.64536 21.3907 8.63238 21.3244 8.64624C21.2916 8.65314 21.2605 8.66645 21.2328 8.68539C21.2052 8.70433 21.1815 8.72853 21.1632 8.75662C21.1449 8.7847 21.1323 8.81612 21.1261 8.84908C21.1199 8.88204 21.1203 8.91589 21.1272 8.9487L22.494 15.4367H17.0907L17.3985 13.9742C17.3988 13.9727 17.3992 13.9713 17.3994 13.9698L18.456 8.9487C18.4629 8.91588 18.4633 8.88203 18.4571 8.84908C18.4509 8.81612 18.4383 8.7847 18.42 8.75662C18.4017 8.72854 18.378 8.70434 18.3503 8.68541C18.3227 8.66648 18.2915 8.65318 18.2587 8.64629C18.1925 8.63241 18.1234 8.64538 18.0667 8.68237C18.01 8.71936 17.9703 8.77734 17.9563 8.84357L16.9465 13.6426C16.7475 13.5975 16.5695 13.4866 16.4412 13.3279C16.3555 13.2227 16.2944 13.0996 16.2626 12.9677C16.2307 12.8358 16.2288 12.6984 16.257 12.5657L17.1854 8.15645C17.2737 7.73699 17.6489 7.43261 18.0775 7.43261H21.5074C21.9359 7.43261 22.3111 7.73699 22.3994 8.15645L23.3278 12.5657C23.356 12.6984 23.3541 12.8358 23.3222 12.9677C23.2903 13.0996 23.2293 13.2227 23.1436 13.3279ZM13.0418 0H11.6329C11.5652 0 11.5002 0.0268994 11.4523 0.0747806C11.4045 0.122662 11.3776 0.187603 11.3776 0.255317V23.7447C11.3776 23.8124 11.4045 23.8773 11.4523 23.9252C11.5002 23.9731 11.5652 24 11.6329 24H13.0418C13.1095 24 13.1744 23.9731 13.2223 23.9252C13.2702 23.8773 13.2971 23.8124 13.2971 23.7447V0.255317C13.2971 0.187603 13.2702 0.122662 13.2223 0.0747806C13.1744 0.0268994 13.1095 0 13.0418 0ZM12.7864 23.4894H11.8882V0.510634H12.7864V23.4894Z" fill="black"/>
</g>
</g>
<defs>
<clipPath id="clip0_3367_15467">
<rect width="24" height="24" fill="white"/>
</clipPath>
<clipPath id="clip1_3367_15467">
<rect width="24" height="24" fill="white"/>
</clipPath>
</defs>
</svg>
