<svg width="21" height="22" viewBox="0 0 21 22" fill="none" xmlns="http://www.w3.org/2000/svg">
<path d="M1.66699 5H3.66699M3.66699 5H19.667M3.66699 5V19C3.66699 19.5304 3.87771 20.0391 4.25278 20.4142C4.62785 20.7893 5.13656 21 5.66699 21H15.667C16.1974 21 16.7061 20.7893 17.0812 20.4142C17.4563 20.0391 17.667 19.5304 17.667 19V5H3.66699ZM6.66699 5V3C6.66699 2.46957 6.87771 1.96086 7.25278 1.58579C7.62785 1.21071 8.13656 1 8.66699 1H12.667C13.1974 1 13.7061 1.21071 14.0812 1.58579C14.4563 1.96086 14.667 2.46957 14.667 3V5M8.66699 10V16M12.667 10V16" stroke="#1A1A1A" stroke-width="1.5" stroke-linecap="round" stroke-linejoin="round"/>
</svg>
