<svg width="24" height="24" viewBox="0 0 24 24" fill="none" xmlns="http://www.w3.org/2000/svg">
<path d="M23.873 11.6825H21.3076C21.051 7.04722 17.3341 3.3299 12.6984 3.07333V0.507951C12.6984 0.22719 12.4712 0 12.1905 0C11.9097 0 11.6825 0.22719 11.6825 0.507951V3.07333C7.0468 3.3299 3.3299 7.04722 3.07333 11.6825H0.507951C0.22719 11.6825 0 11.9097 0 12.1905C0 12.4712 0.22719 12.6984 0.507951 12.6984H3.07333C3.3299 17.3337 7.0468 21.051 11.6825 21.3076V23.873C11.6825 24.1538 11.9097 24.381 12.1905 24.381C12.4712 24.381 12.6984 24.1538 12.6984 23.873V21.3076C17.3341 21.051 21.051 17.3337 21.3076 12.6984H23.873C24.1538 12.6984 24.381 12.4712 24.381 12.1905C24.381 11.9097 24.1537 11.6825 23.873 11.6825ZM12.1905 20.3174C7.70932 20.3174 4.06347 16.6716 4.06347 12.1905C4.06347 7.70932 7.70932 4.06347 12.1905 4.06347C16.6716 4.06347 20.3174 7.70932 20.3174 12.1905C20.3174 16.6716 16.6716 20.3174 12.1905 20.3174Z" fill="black"/>
<path d="M12.0636 8C9.82242 8 8 9.82295 8 12.0636C8 14.3042 9.82247 16.1271 12.0636 16.1271C14.3047 16.1271 16.1271 14.3042 16.1271 12.0636C16.1271 9.82295 14.3047 8 12.0636 8ZM12.0636 15.1113C10.383 15.1113 9.01588 13.7442 9.01588 12.0636C9.01588 10.383 10.383 9.01588 12.0636 9.01588C13.7442 9.01588 15.1113 10.383 15.1113 12.0636C15.1113 13.7442 13.7442 15.1113 12.0636 15.1113Z" fill="black"/>
</svg>
