<svg width="25" height="24" viewBox="0 0 25 24" fill="none" xmlns="http://www.w3.org/2000/svg">
<path d="M4.55176 13.5321C4.67499 13.5321 4.79598 13.4777 4.88316 13.3831C4.97076 13.2875 5.02011 13.1584 5.02051 13.0236C5.02051 12.8894 4.97035 12.7588 4.88316 12.6641C4.79598 12.5695 4.67499 12.5151 4.55176 12.5151C4.42852 12.5151 4.30754 12.5695 4.22035 12.6641C4.13272 12.7597 4.08337 12.8888 4.08301 13.0236C4.08301 13.1575 4.13316 13.2885 4.22035 13.3831C4.30847 13.4781 4.42753 13.5316 4.55176 13.5321Z" fill="black"/>
<path d="M19.6863 13.3665C20.1231 13.5974 20.6023 13.7173 21.0986 13.7173C22.8821 13.7173 24.333 12.1434 24.333 10.2088C24.333 8.4538 23.1386 6.99549 21.5853 6.74008C21.6542 6.37246 21.6889 5.9972 21.6889 5.61864C21.6889 2.52051 19.3653 0 16.5092 0C13.653 0 11.3296 2.52051 11.3296 5.61864C11.3296 5.80037 11.3377 5.98251 11.3537 6.16368C9.59063 6.70851 8.35341 8.45436 8.35341 10.4867C8.35341 11.2035 8.50576 11.8913 8.7976 12.515H6.42676C6.16787 12.515 5.95801 12.7426 5.95801 13.0235C5.95801 13.3042 6.16787 13.532 6.42676 13.532H11.8643V15.7693H1.27051V13.532H2.67676C2.93565 13.532 3.14551 13.3042 3.14551 13.0235C3.14551 12.7426 2.93565 12.515 2.67676 12.515H0.801758C0.542867 12.515 0.333008 12.7426 0.333008 13.0235V16.2777C0.333008 16.5584 0.542867 16.7862 0.801758 16.7862H2.20801V18.6102H0.801758C0.542867 18.6102 0.333008 18.8378 0.333008 19.1186V21.1525C0.333008 21.4334 0.542867 21.661 0.801758 21.661H2.20801V22.983H0.801758C0.542867 22.983 0.333008 23.2107 0.333008 23.4915C0.333008 23.7724 0.542867 24 0.801758 24H21.333C21.5919 24 21.8018 23.7724 21.8018 23.4915C21.8018 23.2107 21.5919 22.983 21.333 22.983H21.2856C21.2883 22.9286 21.2902 22.874 21.2902 22.8194C21.2902 21.2133 20.0857 19.9068 18.6051 19.9068C18.0117 19.9068 17.4409 20.1229 16.978 20.5053V15.5069C18.1539 15.3343 19.1769 14.5223 19.6863 13.3665ZM9.89148 12.515C9.4982 11.9219 9.29091 11.2238 9.29091 10.4867C9.29091 8.78486 10.4119 7.34232 11.9564 7.05666C12.0176 7.04533 12.0761 7.02092 12.1286 6.98484C12.1811 6.94876 12.2264 6.90174 12.262 6.84651C12.2975 6.79124 12.3226 6.72886 12.3357 6.66299C12.3489 6.59712 12.3498 6.52908 12.3385 6.46281C12.291 6.18437 12.2671 5.90181 12.2671 5.61864C12.2671 3.08125 14.1701 1.01695 16.5093 1.01695C18.8483 1.01695 20.7515 3.08125 20.7515 5.61864C20.7519 6.10602 20.6808 6.59036 20.5409 7.05351C20.5173 7.1315 20.5115 7.21453 20.5239 7.29551C20.5363 7.37648 20.5667 7.45298 20.6123 7.51846C20.6579 7.58397 20.7174 7.63652 20.7858 7.67163C20.8542 7.70674 20.9295 7.72336 21.0051 7.72007C21.036 7.71869 21.0671 7.71727 21.0986 7.71727C22.3652 7.71727 23.3955 8.8349 23.3955 10.2088C23.3955 11.5827 22.3652 12.7003 21.0986 12.7003C20.6 12.7003 20.126 12.5301 19.7275 12.208C19.6665 12.1586 19.5954 12.126 19.5202 12.1132C19.445 12.1003 19.368 12.1076 19.296 12.1342C19.2239 12.1609 19.1589 12.2062 19.1066 12.2662C19.0543 12.3262 19.0163 12.3991 18.9959 12.4787C18.7285 13.5171 17.9318 14.285 16.978 14.4772V11.1233L19.3046 8.59937C19.4877 8.40076 19.4877 8.0788 19.3046 7.88019C19.1216 7.68173 18.8248 7.68173 18.6417 7.88019L16.978 9.68507V7.64995C16.978 7.36912 16.768 7.14147 16.5093 7.14147C16.2504 7.14147 16.0405 7.36912 16.0405 7.64995V11.5118L14.2243 9.54163C14.0412 9.34302 13.7444 9.34302 13.5613 9.54163C13.3782 9.74008 13.3782 10.0621 13.5613 10.2607L16.0116 12.9188C16.0209 12.9288 16.0306 12.9379 16.0404 12.9468V14.4782C15.4987 14.3718 15.0056 14.081 14.62 13.6323C14.5488 13.5493 14.454 13.4945 14.3507 13.4767C14.2475 13.4589 14.1417 13.479 14.0502 13.534C13.6648 13.7647 13.2398 13.9069 12.8016 13.9517V13.0233C12.8016 12.7425 12.5918 12.5148 12.3328 12.5148H9.89148V12.515ZM12.333 16.7862C12.5919 16.7862 12.8018 16.5584 12.8018 16.2777V14.972C13.281 14.9339 13.7505 14.8061 14.1895 14.594C14.7108 15.0884 15.3544 15.4058 16.0405 15.5071V20.8637C14.9835 20.9964 14.1304 21.8646 13.9288 22.983H10.9268V21.661H12.333C12.5919 21.661 12.8018 21.4334 12.8018 21.1525V19.1186C12.8018 18.8378 12.5919 18.6102 12.333 18.6102H10.9268V16.7862H12.333ZM3.14551 16.7862H9.98926V18.6102H3.14551V16.7862ZM1.27051 19.6271H11.8643V20.6441H1.27051V19.6271ZM3.14551 21.661H9.98926V22.983H3.14551V21.661ZM17.1849 21.7152C17.5133 21.2197 18.0441 20.9237 18.6051 20.9237C19.5686 20.9237 20.3526 21.7743 20.3526 22.8194C20.3526 22.874 20.3505 22.9286 20.3461 22.983H14.8956C15.0929 22.333 15.658 21.8624 16.3225 21.8624C16.4465 21.8624 16.5701 21.8792 16.69 21.9117C16.8764 21.9625 17.0727 21.8846 17.1849 21.7152Z" fill="black"/>
<path d="M16.5088 6.12442C16.6325 6.12442 16.753 6.06996 16.8402 5.97544C16.9274 5.88091 16.9775 5.74957 16.9775 5.61595C16.9775 5.48222 16.9274 5.35093 16.8402 5.2564C16.753 5.16188 16.6325 5.10742 16.5088 5.10742C16.3855 5.10742 16.2645 5.16183 16.1774 5.2564C16.0902 5.35098 16.04 5.48222 16.04 5.6159C16.04 5.74963 16.0902 5.88086 16.1774 5.97539C16.2646 6.06991 16.3855 6.12442 16.5088 6.12442Z" fill="black"/>
</svg>
