<svg width="24" height="24" viewBox="0 0 24 24" fill="none" xmlns="http://www.w3.org/2000/svg">
<path d="M10.0104 12.3824H8.90973V11.6248H8.19448V12.3824H7.09378V13.1185H10.0104V12.3824ZM12.1979 0V0.736125H12.934V1.86183H13.3041C13.4753 2.92472 14.3743 3.73791 15.4549 3.73791C16.5353 3.73791 17.4344 2.92467 17.6056 1.86183H18V0H12.1979ZM15.4549 3.00178C14.7702 3.00178 14.1939 2.51597 14.0338 1.86183H16.8758C16.7158 2.51597 16.1395 3.00178 15.4549 3.00178ZM17.2848 1.12566H13.6493V0.736078H17.2848V1.12566ZM8.19448 2.24414V11.2495H8.90973V2.24414C8.90973 1.41262 9.56704 0.736125 10.375 0.736125H11.8333V0H10.375C9.17266 0 8.19448 1.00678 8.19448 2.24414ZM10.0034 13.5081H7.1007V23.2639H6V24H11.1017V23.2639H10.0034V13.5081ZM9.28821 23.2639H7.816V21.7487H9.28821V23.2639ZM9.28821 21.0126H7.816V14.2442H9.28821V21.0126Z" fill="black"/>
</svg>
