<svg xmlns="http://www.w3.org/2000/svg" version="1.1" xmlns:xlink="http://www.w3.org/1999/xlink" width="512" height="512" x="0" y="0" viewBox="0 0 58 58" style="enable-background:new 0 0 512 512" xml:space="preserve"><g><g fill="none" fill-rule="nonzero" transform="translate(-1)"><path fill="#A56A43" d="m20 48 1 7-14-1c5 0 5-6 5-12V29.32l4 2.38 3 6.3v4c0 .67 0 1.34.01 2z" opacity="1" data-original="#a56a43"></path><path fill="#4FBA6F" d="M16 31.7a8.46 8.46 0 0 1-2.78-1.31A8.9 8.9 0 0 1 12 29.32a8.426 8.426 0 0 1-1.87-3.04 6.057 6.057 0 0 1-1.42.58 5.653 5.653 0 0 1-1.56.22 6.149 6.149 0 0 1-5.47-8.96A6.294 6.294 0 0 1 3.5 16a6.294 6.294 0 0 1-1.82-2.12 6.145 6.145 0 0 1 8.33-8.25 6.271 6.271 0 0 1 2.15 1.88 8.611 8.611 0 0 1 17.15 1.11c0 .09-.01.17-.01.26s-.01.18-.02.27a6.016 6.016 0 0 1 1.2-.39 5.486 5.486 0 0 1 1.29-.14 6.141 6.141 0 0 1 2.11 11.91c.49.547.88 1.177 1.15 1.86a5.9 5.9 0 0 1 .43 2.23 6.172 6.172 0 0 1-1.8 4.35c-.408.404-.869.75-1.37 1.03z" opacity="1" data-original="#4fba6f"></path><g fill="#BDC3C7"><path d="M24 37h4v8h-4zM46 37h4v8h-4zM20 47h4v8h-4zM50 47h4v8h-4z" fill="#BDC3C7" opacity="1" data-original="#bdc3c7"></path></g><path fill="#4FBA6F" d="M59 56a2.006 2.006 0 0 1-2 2H3c-.53.003-1.04-.21-1.41-.59-.38-.37-.593-.88-.59-1.41a2.006 2.006 0 0 1 2-2h54a2.015 2.015 0 0 1 2 2z" opacity="1" data-original="#4fba6f"></path><rect width="42" height="4" x="16" y="44" fill="#CB8252" rx="1" opacity="1" data-original="#cb8252"></rect><rect width="42" height="8" x="16" y="30" fill="#CB8252" rx="1" opacity="1" data-original="#cb8252"></rect><path fill="#24AE5F" d="M14 23a4 4 0 0 1-4-4 1 1 0 0 1 2 0 2 2 0 0 0 2 2 1 1 0 0 1 0 2zM25 21a1 1 0 0 1 0-2 2 2 0 0 0 2-2 1 1 0 0 1 2 0 4 4 0 0 1-4 4z" opacity="1" data-original="#24ae5f"></path></g></g></svg>