<svg width="24" height="24" viewBox="0 0 24 24" fill="none" xmlns="http://www.w3.org/2000/svg">
<path d="M23.1999 12.5334H20.2665V11.4667H22.1332C22.2039 11.4667 22.2718 11.4386 22.3218 11.3886C22.3718 11.3386 22.3999 11.2708 22.3999 11.2V5.86672C22.3999 5.79599 22.3718 5.72816 22.3218 5.67815C22.2718 5.62814 22.2039 5.60005 22.1332 5.60005H20.2665V5.06672C20.2665 4.99599 20.2384 4.92816 20.1884 4.87815C20.1384 4.82814 20.0706 4.80005 19.9999 4.80005H18.9332C18.8625 4.80005 18.7947 4.82814 18.7446 4.87815C18.6946 4.92816 18.6665 4.99599 18.6665 5.06672V5.60005H5.3332V5.06672C5.3332 4.99599 5.30511 4.92816 5.2551 4.87815C5.20509 4.82814 5.13726 4.80005 5.06654 4.80005H3.99987C3.92915 4.80005 3.86132 4.82814 3.81131 4.87815C3.7613 4.92816 3.7332 4.99599 3.7332 5.06672V5.60005H1.86654C1.79581 5.60005 1.72798 5.62814 1.67797 5.67815C1.62797 5.72816 1.59987 5.79599 1.59987 5.86672V11.2C1.59987 11.2708 1.62797 11.3386 1.67797 11.3886C1.72798 11.4386 1.79581 11.4667 1.86654 11.4667H3.7332V12.5334H0.79987C0.729145 12.5334 0.661318 12.5615 0.611308 12.6115C0.561298 12.6615 0.533203 12.7293 0.533203 12.8V14.4C0.533203 14.4708 0.561298 14.5386 0.611308 14.5886C0.661318 14.6386 0.729145 14.6667 0.79987 14.6667H2.39987V15.4667C2.39987 15.5374 2.42797 15.6053 2.47797 15.6553C2.52798 15.7053 2.59581 15.7334 2.66654 15.7334H3.19987V18.1334C2.9877 18.1334 2.78421 18.2177 2.63418 18.3677C2.48416 18.5177 2.39987 18.7212 2.39987 18.9334V19.2H0.79987C0.729145 19.2 0.661318 19.2281 0.611308 19.2782C0.561298 19.3282 0.533203 19.396 0.533203 19.4667C0.533203 19.5374 0.561298 19.6053 0.611308 19.6553C0.661318 19.7053 0.729145 19.7334 0.79987 19.7334H23.1999C23.2706 19.7334 23.3384 19.7053 23.3884 19.6553C23.4384 19.6053 23.4665 19.5374 23.4665 19.4667C23.4665 19.396 23.4384 19.3282 23.3884 19.2782C23.3384 19.2281 23.2706 19.2 23.1999 19.2H21.5999V18.9334C21.5999 18.7212 21.5156 18.5177 21.3656 18.3677C21.2155 18.2177 21.012 18.1334 20.7999 18.1334V15.7334H21.3332C21.4039 15.7334 21.4718 15.7053 21.5218 15.6553C21.5718 15.6053 21.5999 15.5374 21.5999 15.4667V14.6667H23.1999C23.2706 14.6667 23.3384 14.6386 23.3884 14.5886C23.4384 14.5386 23.4665 14.4708 23.4665 14.4V12.8C23.4665 12.7293 23.4384 12.6615 23.3884 12.6115C23.3384 12.5615 23.2706 12.5334 23.1999 12.5334ZM19.1999 5.33338H19.7332V5.60005H19.1999V5.33338ZM4.26654 5.33338H4.79987V5.60005H4.26654V5.33338ZM2.1332 6.13338H21.8665V8.26672H2.1332V6.13338ZM2.1332 10.9334V8.80005H21.8665V10.9334H2.1332ZM19.7332 11.4667V12.5334H19.1999V11.4667H19.7332ZM18.6665 11.4667V12.5334H5.3332V11.4667H18.6665ZM4.79987 11.4667V12.5334H4.26654V11.4667H4.79987ZM2.9332 15.2V14.6667H5.06654V15.2H2.9332ZM4.26654 15.7334V18.1334H3.7332V15.7334H4.26654ZM5.06654 19.2H2.9332V18.9334C2.9332 18.8627 2.9613 18.7948 3.01131 18.7448C3.06132 18.6948 3.12915 18.6667 3.19987 18.6667H4.79987C4.87059 18.6667 4.93842 18.6948 4.98843 18.7448C5.03844 18.7948 5.06654 18.8627 5.06654 18.9334V19.2ZM18.3999 18.9334V19.2H5.59987V18.9334C5.59987 18.7212 5.51558 18.5177 5.36556 18.3677C5.21553 18.2177 5.01204 18.1334 4.79987 18.1334V15.7334H5.3332C5.40393 15.7334 5.47176 15.7053 5.52177 15.6553C5.57177 15.6053 5.59987 15.5374 5.59987 15.4667V14.6667H18.3999V15.4667C18.3999 15.5374 18.428 15.6053 18.478 15.6553C18.528 15.7053 18.5958 15.7334 18.6665 15.7334H19.1999V18.1334C18.9877 18.1334 18.7842 18.2177 18.6342 18.3677C18.4842 18.5177 18.3999 18.7212 18.3999 18.9334ZM21.0665 18.9334V19.2H18.9332V18.9334C18.9332 18.8627 18.9613 18.7948 19.0113 18.7448C19.0613 18.6948 19.1291 18.6667 19.1999 18.6667H20.7999C20.8706 18.6667 20.9384 18.6948 20.9884 18.7448C21.0384 18.7948 21.0665 18.8627 21.0665 18.9334ZM19.7332 18.1334V15.7334H20.2665V18.1334H19.7332ZM21.0665 15.2H18.9332V14.6667H21.0665V15.2ZM22.9332 14.1334H1.06654V13.0667H22.9332V14.1334ZM19.4665 9.06672C19.3083 9.06672 19.1536 9.11364 19.0221 9.20154C18.8905 9.28945 18.788 9.41439 18.7274 9.56057C18.6669 9.70675 18.651 9.8676 18.6819 10.0228C18.7128 10.178 18.789 10.3205 18.9009 10.4324C19.0127 10.5443 19.1553 10.6205 19.3105 10.6513C19.4656 10.6822 19.6265 10.6664 19.7727 10.6058C19.9189 10.5453 20.0438 10.4427 20.1317 10.3112C20.2196 10.1796 20.2665 10.0249 20.2665 9.86672C20.2665 9.65454 20.1823 9.45106 20.0322 9.30103C19.8822 9.151 19.6787 9.06672 19.4665 9.06672ZM19.4665 10.1334C19.4138 10.1334 19.3622 10.1177 19.3184 10.0884C19.2745 10.0591 19.2404 10.0175 19.2202 9.96876C19.2 9.92004 19.1947 9.86642 19.205 9.81469C19.2153 9.76296 19.2407 9.71545 19.278 9.67815C19.3153 9.64086 19.3628 9.61546 19.4145 9.60517C19.4662 9.59488 19.5199 9.60016 19.5686 9.62035C19.6173 9.64053 19.659 9.67471 19.6883 9.71856C19.7176 9.76242 19.7332 9.81397 19.7332 9.86672C19.7332 9.93744 19.7051 10.0053 19.6551 10.0553C19.6051 10.1053 19.5373 10.1334 19.4665 10.1334ZM4.5332 9.06672C4.37498 9.06672 4.22031 9.11364 4.08875 9.20154C3.95719 9.28945 3.85465 9.41439 3.7941 9.56057C3.73355 9.70675 3.71771 9.8676 3.74857 10.0228C3.77944 10.178 3.85564 10.3205 3.96752 10.4324C4.0794 10.5443 4.22195 10.6205 4.37713 10.6513C4.53232 10.6822 4.69317 10.6664 4.83935 10.6058C4.98553 10.5453 5.11047 10.4427 5.19838 10.3112C5.28628 10.1796 5.3332 10.0249 5.3332 9.86672C5.3332 9.65454 5.24892 9.45106 5.09889 9.30103C4.94886 9.151 4.74538 9.06672 4.5332 9.06672ZM4.5332 10.1334C4.48046 10.1334 4.4289 10.1177 4.38505 10.0884C4.3412 10.0591 4.30702 10.0175 4.28684 9.96876C4.26665 9.92004 4.26137 9.86642 4.27166 9.81469C4.28195 9.76296 4.30735 9.71545 4.34464 9.67815C4.38194 9.64086 4.42945 9.61546 4.48118 9.60517C4.53291 9.59488 4.58652 9.60016 4.63525 9.62035C4.68398 9.64053 4.72563 9.67471 4.75493 9.71856C4.78423 9.76242 4.79987 9.81397 4.79987 9.86672C4.79987 9.93744 4.77178 10.0053 4.72177 10.0553C4.67176 10.1053 4.60393 10.1334 4.5332 10.1334ZM4.5332 6.40005C4.37498 6.40005 4.22031 6.44697 4.08875 6.53487C3.95719 6.62278 3.85465 6.74772 3.7941 6.8939C3.73355 7.04008 3.71771 7.20094 3.74857 7.35612C3.77944 7.51131 3.85564 7.65385 3.96752 7.76573C4.0794 7.87762 4.22195 7.95381 4.37713 7.98468C4.53232 8.01555 4.69317 7.9997 4.83935 7.93915C4.98553 7.8786 5.11047 7.77606 5.19838 7.64451C5.28628 7.51295 5.3332 7.35827 5.3332 7.20005C5.3332 6.98788 5.24892 6.78439 5.09889 6.63436C4.94886 6.48433 4.74538 6.40005 4.5332 6.40005ZM4.5332 7.46672C4.48046 7.46672 4.4289 7.45108 4.38505 7.42177C4.3412 7.39247 4.30702 7.35082 4.28684 7.3021C4.26665 7.25337 4.26137 7.19975 4.27166 7.14802C4.28195 7.0963 4.30735 7.04878 4.34464 7.01149C4.38194 6.97419 4.42945 6.9488 4.48118 6.93851C4.53291 6.92822 4.58652 6.9335 4.63525 6.95368C4.68398 6.97386 4.72563 7.00804 4.75493 7.0519C4.78423 7.09575 4.79987 7.14731 4.79987 7.20005C4.79987 7.27077 4.77178 7.3386 4.72177 7.38861C4.67176 7.43862 4.60393 7.46672 4.5332 7.46672ZM19.4665 6.40005C19.3083 6.40005 19.1536 6.44697 19.0221 6.53487C18.8905 6.62278 18.788 6.74772 18.7274 6.8939C18.6669 7.04008 18.651 7.20094 18.6819 7.35612C18.7128 7.51131 18.789 7.65385 18.9009 7.76573C19.0127 7.87762 19.1553 7.95381 19.3105 7.98468C19.4656 8.01555 19.6265 7.9997 19.7727 7.93915C19.9189 7.8786 20.0438 7.77606 20.1317 7.64451C20.2196 7.51295 20.2665 7.35827 20.2665 7.20005C20.2665 6.98788 20.1823 6.78439 20.0322 6.63436C19.8822 6.48433 19.6787 6.40005 19.4665 6.40005ZM19.4665 7.46672C19.4138 7.46672 19.3622 7.45108 19.3184 7.42177C19.2745 7.39247 19.2404 7.35082 19.2202 7.3021C19.2 7.25337 19.1947 7.19975 19.205 7.14802C19.2153 7.0963 19.2407 7.04878 19.278 7.01149C19.3153 6.97419 19.3628 6.9488 19.4145 6.93851C19.4662 6.92822 19.5199 6.9335 19.5686 6.95368C19.6173 6.97386 19.659 7.00804 19.6883 7.0519C19.7176 7.09575 19.7332 7.14731 19.7332 7.20005C19.7332 7.27077 19.7051 7.3386 19.6551 7.38861C19.6051 7.43862 19.5373 7.46672 19.4665 7.46672Z" fill="black"/>
</svg>
