<svg xmlns="http://www.w3.org/2000/svg" version="1.1" xmlns:xlink="http://www.w3.org/1999/xlink" width="512" height="512" x="0" y="0" viewBox="0 0 24 24" style="enable-background:new 0 0 512 512" xml:space="preserve"><g><path fill="#000000" fill-rule="evenodd" d="M6.244 5a.497.497 0 0 0-.479.357L3.16 14.039c.11-.025.223-.039.34-.039h16c.117 0 .23.014.34.039l-2.605-8.682A.503.503 0 0 0 16.756 5zM17.5 16.5h.5a.5.5 0 1 1 0 1h-.5a.5.5 0 1 1 0-1zm-3 0h.5a.5.5 0 1 1 0 1h-.5a.5.5 0 1 1 0-1zM3 16.5v2c0 .275.225.5.5.5h16c.275 0 .5-.225.5-.5v-3c0-.275-.225-.5-.5-.5h-16c-.275 0-.5.225-.5.5zM19.5 20h-16c-.827 0-1.5-.673-1.5-1.5v-3.707c0-.247.035-.489.105-.719L4.808 5.07C4.999 4.43 5.576 4 6.244 4h10.512c.657 0 1.248.44 1.436 1.07l2.703 9.006c.07.233.105.474.105.717V18.5c0 .827-.673 1.5-1.5 1.5z" opacity="1" data-original="#000000"></path></g></svg>