<svg xmlns="http://www.w3.org/2000/svg" version="1.1" xmlns:xlink="http://www.w3.org/1999/xlink" width="512" height="512" x="0" y="0" viewBox="0 0 24 24" style="enable-background:new 0 0 512 512" xml:space="preserve"><g><path d="M21.5 22h-19A2.503 2.503 0 0 1 0 19.5v-7a.5.5 0 0 1 .044-.205l3.969-8.82A2.506 2.506 0 0 1 6.293 2h11.414c.981 0 1.876.579 2.28 1.475l3.969 8.82A.5.5 0 0 1 24 12.5v7c0 1.379-1.122 2.5-2.5 2.5zM1 12.607V19.5c0 .827.673 1.5 1.5 1.5h19c.827 0 1.5-.673 1.5-1.5v-6.893l-3.925-8.723A1.505 1.505 0 0 0 17.707 3H6.293c-.589 0-1.126.348-1.368.885z" fill="#000000" opacity="1" data-original="#000000"></path><path d="M16.807 17H7.193a1.506 1.506 0 0 1-1.404-.973l-1.014-2.703A.5.5 0 0 0 4.307 13H.75a.5.5 0 0 1 0-1h3.557c.622 0 1.186.391 1.405.973l1.013 2.703a.502.502 0 0 0 .468.324h9.613a.5.5 0 0 0 .468-.324l1.013-2.703A1.51 1.51 0 0 1 19.693 12H23.5a.5.5 0 0 1 0 1h-3.807a.5.5 0 0 0-.468.324l-1.013 2.703a1.509 1.509 0 0 1-1.405.973z" fill="#000000" opacity="1" data-original="#000000"></path></g></svg>