<svg width="24" height="24" viewBox="0 0 24 24" fill="none" xmlns="http://www.w3.org/2000/svg">
<g clip-path="url(#clip0_3348_14293)">
<path d="M17.7598 23.9999H6.23977C6.11246 23.9999 5.99037 23.9547 5.90035 23.8744C5.81034 23.794 5.75977 23.685 5.75977 23.5713V21.857C5.75977 21.7434 5.81034 21.6344 5.90035 21.554C5.99037 21.4736 6.11246 21.4285 6.23977 21.4285H17.7598C17.8871 21.4285 18.0092 21.4736 18.0992 21.554C18.1892 21.6344 18.2398 21.7434 18.2398 21.857V23.5713C18.2398 23.685 18.1892 23.794 18.0992 23.8744C18.0092 23.9547 17.8871 23.9999 17.7598 23.9999ZM6.71977 23.1428H17.2798V22.2856H6.71977V23.1428Z" fill="black"/>
<path d="M15.8397 22.2857H8.15969C8.03238 22.2857 7.91029 22.2406 7.82028 22.1602C7.73026 22.0798 7.67969 21.9708 7.67969 21.8571V18.4286C7.67969 18.3149 7.73026 18.2059 7.82028 18.1255C7.91029 18.0452 8.03238 18 8.15969 18H15.8397C15.967 18 16.0891 18.0452 16.1791 18.1255C16.2691 18.2059 16.3197 18.3149 16.3197 18.4286V21.8571C16.3197 21.9708 16.2691 22.0798 16.1791 22.1602C16.0891 22.2406 15.967 22.2857 15.8397 22.2857ZM8.63969 21.4286H15.3597V18.8571H8.63969V21.4286Z" fill="black"/>
<path d="M15.84 18.8571H8.16C5.99657 18.8549 3.92245 18.0866 2.39267 16.7208C0.862901 15.3549 0.0024139 13.503 0 11.5714V10.7142C0 10.6006 0.0505714 10.4915 0.140589 10.4112C0.230606 10.3308 0.352696 10.2856 0.48 10.2856H23.52C23.6473 10.2856 23.7694 10.3308 23.8594 10.4112C23.9494 10.4915 24 10.6006 24 10.7142V11.5714C23.9976 13.503 23.1371 15.3549 21.6073 16.7208C20.0776 18.0866 18.0034 18.8549 15.84 18.8571ZM0.96 11.1428V11.5714C0.962033 13.2758 1.72125 14.9098 3.07108 16.115C4.4209 17.3202 6.25107 17.9981 8.16 17.9999H15.84C17.7489 17.9981 19.5791 17.3202 20.9289 16.115C22.2787 14.9098 23.038 13.2758 23.04 11.5714V11.1428H0.96Z" fill="black"/>
<path d="M11.9995 11.1429C11.8722 11.1429 11.7501 11.0977 11.6601 11.0173C11.5701 10.937 11.5195 10.828 11.5195 10.7143V1.71429C11.5195 1.25963 11.7218 0.823593 12.0819 0.502103C12.442 0.180612 12.9303 0 13.4395 0C13.9487 0 14.4371 0.180612 14.7972 0.502103C15.1572 0.823593 15.3595 1.25963 15.3595 1.71429V2.14286C15.3595 2.25652 15.309 2.36553 15.2189 2.4459C15.1289 2.52628 15.0068 2.57143 14.8795 2.57143C14.7522 2.57143 14.6301 2.52628 14.5401 2.4459C14.4501 2.36553 14.3995 2.25652 14.3995 2.14286V1.71429C14.3995 1.48696 14.2984 1.26894 14.1184 1.10819C13.9383 0.947449 13.6941 0.857143 13.4395 0.857143C13.1849 0.857143 12.9407 0.947449 12.7607 1.10819C12.5807 1.26894 12.4795 1.48696 12.4795 1.71429V10.7143C12.4795 10.828 12.429 10.937 12.3389 11.0173C12.2489 11.0977 12.1268 11.1429 11.9995 11.1429Z" fill="black"/>
<path d="M11.9996 11.1429C11.8723 11.1429 11.7503 11.0977 11.6602 11.0173C11.5702 10.937 11.5196 10.828 11.5196 10.7143V1.71429C11.5196 1.48696 11.4185 1.26894 11.2385 1.10819C11.0584 0.947449 10.8143 0.857143 10.5596 0.857143C10.305 0.857143 10.0609 0.947449 9.88083 1.10819C9.70079 1.26894 9.59965 1.48696 9.59965 1.71429V2.14286C9.59965 2.25652 9.54908 2.36553 9.45906 2.4459C9.36904 2.52628 9.24695 2.57143 9.11965 2.57143C8.99234 2.57143 8.87025 2.52628 8.78024 2.4459C8.69022 2.36553 8.63965 2.25652 8.63965 2.14286V1.71429C8.63965 1.25963 8.84193 0.823593 9.202 0.502103C9.56207 0.180612 10.0504 0 10.5596 0C11.0689 0 11.5572 0.180612 11.9173 0.502103C12.2774 0.823593 12.4796 1.25963 12.4796 1.71429V10.7143C12.4796 10.828 12.4291 10.937 12.3391 11.0173C12.249 11.0977 12.127 11.1429 11.9996 11.1429Z" fill="black"/>
<path d="M11.9995 11.1428C11.8722 11.1428 11.7501 11.0976 11.6601 11.0173C11.5701 10.9369 11.5195 10.8279 11.5195 10.7142V7.28564C11.5195 6.49 11.8735 5.72693 12.5037 5.16432C13.1338 4.60172 13.9884 4.28564 14.8795 4.28564C15.7707 4.28564 16.6253 4.60172 17.2554 5.16432C17.8855 5.72693 18.2395 6.49 18.2395 7.28564V8.14279C18.2395 8.25645 18.189 8.36546 18.0989 8.44583C18.0089 8.52621 17.8868 8.57136 17.7595 8.57136C17.6322 8.57136 17.5101 8.52621 17.4201 8.44583C17.3301 8.36546 17.2795 8.25645 17.2795 8.14279V7.28564C17.2795 6.71732 17.0267 6.17228 16.5766 5.77042C16.1265 5.36855 15.5161 5.14279 14.8795 5.14279C14.243 5.14279 13.6326 5.36855 13.1825 5.77042C12.7324 6.17228 12.4795 6.71732 12.4795 7.28564V10.7142C12.4795 10.8279 12.429 10.9369 12.3389 11.0173C12.2489 11.0976 12.1268 11.1428 11.9995 11.1428Z" fill="black"/>
<path d="M12.0001 11.1428C11.8728 11.1428 11.7507 11.0976 11.6607 11.0173C11.5707 10.9369 11.5201 10.8279 11.5201 10.7142V7.28564C11.5201 6.71732 11.2672 6.17228 10.8172 5.77042C10.3671 5.36855 9.75662 5.14279 9.1201 5.14279C8.48358 5.14279 7.87313 5.36855 7.42304 5.77042C6.97296 6.17228 6.7201 6.71732 6.7201 7.28564V8.14279C6.7201 8.25645 6.66953 8.36546 6.57951 8.44583C6.48949 8.52621 6.3674 8.57136 6.2401 8.57136C6.1128 8.57136 5.99071 8.52621 5.90069 8.44583C5.81067 8.36546 5.7601 8.25645 5.7601 8.14279V7.28564C5.7601 6.49 6.1141 5.72693 6.74422 5.16432C7.37434 4.60172 8.22897 4.28564 9.1201 4.28564C10.0112 4.28564 10.8659 4.60172 11.496 5.16432C12.1261 5.72693 12.4801 6.49 12.4801 7.28564V10.7142C12.4801 10.8279 12.4295 10.9369 12.3395 11.0173C12.2495 11.0976 12.1274 11.1428 12.0001 11.1428ZM23.4625 12.8571H0.5425C0.415196 12.8571 0.293106 12.8119 0.203089 12.7315C0.113071 12.6512 0.0625 12.5422 0.0625 12.4285C0.0625 12.3148 0.113071 12.2058 0.203089 12.1255C0.293106 12.0451 0.415196 11.9999 0.5425 11.9999H23.4625C23.5898 11.9999 23.7119 12.0451 23.8019 12.1255C23.8919 12.2058 23.9425 12.3148 23.9425 12.4285C23.9425 12.5422 23.8919 12.6512 23.8019 12.7315C23.7119 12.8119 23.5898 12.8571 23.4625 12.8571Z" fill="black"/>
</g>
<defs>
<clipPath id="clip0_3348_14293">
<rect width="24" height="24" fill="white"/>
</clipPath>
</defs>
</svg>
