<svg xmlns="http://www.w3.org/2000/svg" version="1.1" xmlns:xlink="http://www.w3.org/1999/xlink" width="512" height="512" x="0" y="0" viewBox="0 0 512 512" style="enable-background:new 0 0 512 512" xml:space="preserve"><g><path fill="#596C76" d="M54.122 150.238c6.24 0 11.299-5.058 11.299-11.299V78.651c0-6.24-5.059-11.299-11.299-11.299H40.363c-6.24 0-11.299 5.058-11.299 11.299v60.288c0 6.24 5.059 11.299 11.299 11.299z" opacity="1" data-original="#596c76"></path><path fill="#465A61" d="M70.858 67.352h-20.92c6.24 0 11.299 5.058 11.299 11.299v60.288c0 6.24-5.059 11.299-11.299 11.299h20.92c6.24 0 11.299-5.058 11.299-11.299V78.651c0-6.24-5.059-11.299-11.299-11.299z" opacity="1" data-original="#465a61"></path><path fill="#596C76" d="m354.027 108.874-28.375-93.026C322.754 6.345 315.079.002 306.477 0H168.335c-8.604 0-16.281 6.343-19.18 15.849l-28.375 93.026h233.247z" opacity="1" data-original="#596c76"></path><path fill="#D8ECFE" d="m173.817 59.309 7.16-21.964a4.269 4.269 0 0 1 4.058-2.945h125.659a4.27 4.27 0 0 1 4.058 2.945l7.16 21.964c.899 2.758-1.157 5.591-4.058 5.591H177.875c-2.902-.001-4.957-2.833-4.058-5.591z" opacity="1" data-original="#d8ecfe"></path><path fill="#465A61" d="M346.573 15.849C343.674 6.343 335.997 0 327.393 0h-27.196c8.604 0 16.281 6.343 19.18 15.849l28.375 93.026h27.197z" opacity="1" data-original="#465a61"></path><path fill="#7A8C98" d="M454.671 99.273c-2.962-.34 22.445-.227-417.626-.227-18.424 0-33.37 14.936-33.37 33.36v245.592c0 4.566.839 8.267 2.317 12.213a40.802 40.802 0 0 0 22.483 6.753h413.212c12.565 0 22.751-10.186 22.751-22.751V108.874z" opacity="1" data-original="#7a8c98"></path><path fill="#D8ECFE" d="M435.659 168.573h-39.698a4.268 4.268 0 0 1-4.268-4.268v-28.134a4.268 4.268 0 0 1 4.268-4.268h39.698a4.268 4.268 0 0 1 4.268 4.268v28.134a4.268 4.268 0 0 1-4.268 4.268z" opacity="1" data-original="#d8ecfe"></path><path fill="#596C76" d="M454.671 99.273a33.252 33.252 0 0 1 2.317 12.213v245.593c0 18.425-14.936 33.361-33.36 33.361H9.839a33.69 33.69 0 0 1-3.847-.228c4.875 12.381 16.931 21.148 31.044 21.148h413.788c18.425 0 33.36-14.936 33.36-33.361V132.406c0-17.123-12.902-31.225-29.513-33.133z" opacity="1" data-original="#596c76"></path><path fill="#9FACBA" d="M350.242 255.202c0-72.848-62.092-122.667-114.93-122.667-62.2 6.289-110.747 58.808-110.747 122.667 0 61.63 45.694 115.502 110.747 122.667 52.897 0 114.93-49.852 114.93-122.667z" opacity="1" data-original="#9facba"></path><path fill="#8D9CA8" d="M235.312 132.535c62.2 6.289 110.747 58.808 110.747 122.667S297.512 371.58 235.312 377.869c72.77 7.357 135.851-49.639 135.851-122.667 0-72.81-62.86-130.047-135.851-122.667z" opacity="1" data-original="#8d9ca8"></path><path fill="#596C76" d="M241.589 341.176c42.849-5.185 76.168-41.749 76.168-85.974 0-50.845-43.326-85.975-80.352-85.975-45.652 6.13-76.168 43.946-76.168 85.975 0 44.225 33.319 80.791 76.169 85.974z" opacity="1" data-original="#596c76"></path><path fill="#465A61" d="M237.404 169.227c42.849 5.184 76.168 41.75 76.168 85.975s-33.319 80.79-76.168 85.974c51.93 6.283 97.089-34.389 97.089-85.974 0-51.513-45.089-92.266-97.089-85.975z" opacity="1" data-original="#465a61"></path><path fill="#465A61" d="M247.864 300.102c-24.758 0-44.9-20.142-44.9-44.9s20.142-44.901 44.9-44.901 44.9 20.143 44.9 44.901-20.142 44.9-44.9 44.9z" opacity="1" data-original="#465a61"></path><path fill="#8D9CA8" d="M272.847 250.136c-10.982 0-19.917-8.935-19.917-19.917s8.935-19.917 19.917-19.917 19.917 8.935 19.917 19.917-8.934 19.917-19.917 19.917z" opacity="1" data-original="#8d9ca8"></path><path fill="#FE99A0" d="M487.282 411.518c0-59.645-51.067-99.684-92.039-99.684-49.534 6.204-87.858 48.468-87.858 99.684 0 49.106 35.699 92.643 87.856 99.684 40.756 0 92.041-39.801 92.041-99.684z" opacity="1" data-original="#fe99a0"></path><path fill="#FD8087" d="M395.241 311.834c49.534 6.205 87.857 48.468 87.857 99.684s-38.323 93.479-87.857 99.684c60.317 7.552 113.083-39.443 113.083-99.684.001-60.271-52.797-107.232-113.083-99.684z" opacity="1" data-original="#fd8087"></path><path fill="#FE646F" d="m429.414 411.518 25.457-25.457c5.953-5.954 5.953-15.606 0-21.56s-15.606-5.954-21.56 0l-25.457 25.457-25.457-25.457c-5.954-5.953-15.606-5.953-21.56 0-5.953 5.954-5.953 15.606 0 21.56l25.457 25.457-25.457 25.457c-5.953 5.954-5.953 15.606 0 21.56 5.951 5.952 15.605 5.955 21.56 0l25.457-25.457 25.457 25.457c5.955 5.954 15.605 5.953 21.56 0 5.953-5.954 5.953-15.606 0-21.56z" opacity="1" data-original="#fe646f"></path></g></svg>