<?xml version="1.0" encoding="utf-8"?>
<!-- Generator: Adobe Illustrator 28.1.0, SVG Export Plug-In . SVG Version: 6.00 Build 0)  -->
<svg version="1.1" id="Слой_1" xmlns="http://www.w3.org/2000/svg" xmlns:xlink="http://www.w3.org/1999/xlink" x="0px" y="0px"
	 viewBox="0 0 12 12" style="enable-background:new 0 0 12 12;" xml:space="preserve">
<style type="text/css">
	.st0{fill:#EEA63A;}
</style>
<path class="st0" d="M2.9,12c-0.2,0-0.4-0.1-0.6-0.2c-0.3-0.2-0.5-0.6-0.4-1L2.4,8c0-0.1,0-0.3-0.1-0.4l-2-2C0,5.3-0.1,4.9,0,4.5
	c0.1-0.4,0.4-0.7,0.8-0.7l2.7-0.4c0.1,0,0.2-0.1,0.3-0.2l1.2-2.6C5.3,0.2,5.6,0,6,0c0.4,0,0.7,0.2,0.9,0.6l1.2,2.6
	c0.1,0.1,0.2,0.2,0.3,0.2l2.7,0.4c0.4,0.1,0.7,0.3,0.8,0.7c0.1,0.4,0,0.8-0.3,1.1l-2,2C9.6,7.7,9.6,7.8,9.6,8l0.5,2.8
	c0.1,0.4-0.1,0.8-0.4,1C9.4,12,9,12.1,8.6,11.9l-2.4-1.3c-0.1-0.1-0.3-0.1-0.4,0l-2.4,1.3C3.2,12,3.1,12,2.9,12z"/>
</svg>
